<?xml version="1.0" encoding="UTF-8" standalone="no"?>
<!-- Created with Inkscape (http://www.inkscape.org/) -->

<svg
   version="1.1"
   id="svg1"
   width="160"
   height="160"
   viewBox="0 0 160 160"
   xml:space="preserve"
   xmlns="http://www.w3.org/2000/svg"
   xmlns:svg="http://www.w3.org/2000/svg"><defs
     id="defs1" /><path
     style="display:inline;fill:#19c6d8"
     d="M 48.473305,152.66265 C 45.959945,152.05989 44.8,150.33837 44.8,147.21096 c 0,-4.48926 2.037303,-6.62765 6.628773,-6.95769 1.370175,-0.0985 2.664203,-0.31556 2.875619,-0.4824 0.432126,-0.341 4.255608,-9.82983 4.255608,-10.56124 0,-0.69146 -0.886142,-1.3343 -2.985467,-2.16578 -2.298807,-0.91049 -8.863089,-4.64609 -10.910655,-6.20903 -2.330575,-1.77897 -2.950936,-1.64022 -6.283024,1.40518 -1.540545,1.408 -2.95846,2.56 -3.150922,2.56 -0.791004,0 -0.223786,-0.9565 2.050068,-3.45701 1.32,-1.45158 2.4,-2.78538 2.4,-2.96401 0,-0.17863 -1.318605,-1.86697 -2.930234,-3.75188 -2.709174,-3.16856 -3.983917,-4.94178 -6.617745,-9.20556 -0.549865,-0.89015 -1.36176,-1.95854 -1.804211,-2.3742 -0.918494,-0.86288 -0.411604,-0.9661 -6.72781,1.36995 -2.112,0.78112 -4.776,1.87067 -5.92,2.42121 -2.713763,1.30599 -3.665376,1.30411 -4.463807,-0.009 C 10.087174,104.97318 8.0399763,98.212402 7.936904,96 7.849485,94.123591 7.9005762,93.92 8.4588793,93.92 c 0.5318678,0 0.7173866,0.494895 1.3195247,3.52 0.998016,5.01397 2.438658,8.8 3.348535,8.8 0.171702,0 1.587145,-0.57408 3.145429,-1.27574 3.117659,-1.40381 9.880138,-3.8043 11.437637,-4.06005 1.167125,-0.19164 1.461697,0.13741 5.492936,6.13579 5.814482,8.6518 10.410109,12.34869 22.90241,18.42349 2.203269,1.07141 4.089719,2.16634 4.192109,2.43316 0.102391,0.26683 -0.764939,2.81124 -1.927401,5.65425 -3.10635,7.59713 -2.974859,6.83001 -1.540904,8.9897 2.079328,3.13169 1.853135,6.79532 -0.558013,9.03808 -0.413128,0.38428 -1.156516,0.85228 -1.651974,1.04 -0.99873,0.37841 -4.642635,0.40448 -6.145863,0.044 z m 6.515958,-1.20476 c 2.774661,-2.03314 2.587552,-7.31264 -0.335992,-9.48038 -1.192271,-0.88404 -3.814925,-1.01895 -5.845866,-0.30072 -2.248794,0.79527 -3.047405,2.06772 -3.047405,4.85553 0,2.73515 0.691665,4.09803 2.583677,5.09098 1.193691,0.62645 1.760454,0.72086 3.605586,0.60063 1.48937,-0.0971 2.461237,-0.34195 3.04,-0.76604 z m -5.002369,-0.41374 c -3.848634,-0.9088 -4.483077,-6.40715 -0.925673,-8.02227 3.540332,-1.60736 7.022461,0.27563 7.075234,3.82599 0.0458,3.0815 -2.760624,4.99653 -6.149561,4.19628 z m 57.903296,-3.74602 c -0.46252,-0.18438 -1.71224,-2.78538 -3.42967,-7.13813 -0.59027,-1.496 -1.93438,-4.72624 -2.98692,-7.17831 -1.503767,-3.5033 -1.844597,-4.58744 -1.591099,-5.0611 0.177429,-0.33154 1.860459,-1.35539 3.740049,-2.27523 5.77808,-2.8277 7.96634,-4.49526 7.51786,-5.729 -0.14323,-0.394 -0.26041,-1.60606 -0.26041,-2.69348 0,-2.1243 0.49788,-3.12988 2.1665,-4.37568 1.05561,-0.78813 4.01622,-1.08112 5.34843,-0.5293 1.33986,0.55499 3.0943,2.59812 3.55692,4.14221 0.30437,1.01589 0.30532,1.5807 0.004,2.5852 -0.46394,1.54847 -1.92822,3.2929 -3.20963,3.82367 -0.92239,0.38207 -3.89225,0.3079 -5.97269,-0.14916 -0.82327,-0.18087 -1.35169,0.0192 -3.2,1.21173 -1.21765,0.7856 -3.56092,2.10338 -5.20729,2.92839 -2.81108,1.40866 -2.98376,1.5524 -2.83537,2.36004 0.41159,2.24017 6.47094,15.93099 7.16944,16.19903 0.53098,0.20375 1.16671,-0.10107 6.17932,-2.9628 5.37489,-3.06856 7.10963,-4.24147 10.8655,-7.34648 4.74508,-3.9228 6.60016,-5.89188 9.3029,-9.87461 1.29706,-1.91131 3.88889,-5.63512 5.75963,-8.27512 4.13509,-5.83546 4.70741,-6.89354 6.52374,-12.06082 2.3921,-6.805292 4.00016,-15.440655 3.13027,-16.809758 -0.13649,-0.214818 -0.8804,-0.613643 -1.65313,-0.886278 -2.0406,-0.719966 -3.36494,-1.857303 -4.18545,-3.594444 -1.32209,-2.799082 -0.85148,-2.6487 -8.28906,-2.6487 -6.64902,0 -7.54426,-0.14501 -7.15516,-1.158994 0.13613,-0.354743 1.46136,-0.441964 6.775,-0.445906 3.63317,-0.0027 6.76659,-0.110695 6.96315,-0.24 0.19656,-0.129305 0.85556,-1.317259 1.46443,-2.639897 1.77005,-3.845031 3.80322,-5.038533 7.99418,-4.692716 2.43722,0.201107 3.63147,0.726312 5.18573,2.280572 1.73776,1.737761 2.76817,5.750876 2.11081,8.220902 -0.56485,2.12244 -1.65967,3.317655 -4.07413,4.44775 -1.18712,0.555639 -2.37441,1.118833 -2.63841,1.251542 -0.264,0.13271 -0.51895,0.730768 -0.56656,1.329019 -0.6291,7.905231 -3.30136,16.797048 -7.20301,23.967728 -1.67247,3.07377 -6.53974,10.38499 -8.84085,13.28 -6.01413,7.56637 -14.96785,14.79395 -23.81568,19.22439 -3.43834,1.72171 -3.81446,1.84432 -4.64371,1.51374 z m 10.37496,-25.66496 c 1.79421,-0.81489 2.69497,-2.04393 2.69435,-3.67632 -0.001,-3.70272 -3.2032,-5.87447 -6.50648,-4.41327 -3.5973,1.59125 -3.7187,6.3714 -0.20664,8.13592 1.41175,0.70929 2.37964,0.69813 4.01877,-0.0463 z m -3.91995,-0.81965 c -1.25685,-0.54672 -1.7052,-1.34824 -1.7052,-3.04837 0,-2.43229 1.31018,-3.84515 3.56568,-3.84515 1.995,0 3.79432,1.81644 3.79432,3.83041 0,1.47606 -0.52317,2.22751 -2.02582,2.90977 -1.57939,0.7171 -2.26624,0.74612 -3.62898,0.15334 z m 41.01535,-35.373788 c 0.89817,-0.434793 1.80534,-1.206343 2.30352,-1.959146 0.73572,-1.111751 0.8054,-1.471481 0.66505,-3.433097 -0.3249,-4.540946 -2.73493,-7.095794 -6.67723,-7.078475 -4.80004,0.02109 -7.77113,3.683552 -6.87279,8.4721 0.27052,1.442032 2.15085,3.576234 3.8609,4.382188 1.66921,0.786707 4.65512,0.616289 6.72055,-0.38357 z m -6.03493,-0.948894 c -2.69045,-0.864702 -3.80933,-3.986439 -2.47879,-6.91599 1.48641,-3.272768 5.58087,-4.305552 8.14476,-2.05443 2.43796,2.140562 2.38037,7.305924 -0.0962,8.631364 -0.9018,0.482631 -4.45081,0.698675 -5.56973,0.339056 z M 77.463178,143.78337 c -2.968335,-1.51106 -4.688128,-4.54568 -5.175316,-9.13199 -0.409779,-3.8576 -0.209533,-5.57817 1.490219,-12.80439 1.9278,-8.19573 2.683322,-12.8659 2.780022,-17.18437 l 0.0819,-3.65739 -2.825799,-0.56149 c -1.55419,-0.30881 -4.21819,-1.017076 -5.92,-1.57391 -10.201809,-3.338042 -16.661895,-8.702763 -22.953128,-19.061222 -0.271857,-0.447611 -0.728079,-0.543997 -2.30546,-0.487075 -2.752777,0.09934 -4.377934,-0.424573 -6.024212,-1.942059 -2.861105,-2.637275 -3.136788,-7.238087 -0.586522,-9.788353 0.593401,-0.593401 1.21148,-0.996978 1.373509,-0.896838 0.16203,0.100139 0.287044,1.010892 0.27781,2.023894 -0.03157,3.463017 1.612119,5.110867 4.77259,4.784677 2.17172,-0.224141 4.64389,-1.546865 8.285821,-4.433295 C 57.66589,63.576141 63.587405,60.47551 71.2,58.353445 c 4.246712,-1.183802 10.660513,-1.383924 15.04,-0.469275 7.156486,1.49462 14.84967,5.231971 22.27715,10.822253 5.54054,4.170075 6.83904,4.876503 8.98202,4.886549 3.14332,0.01474 4.41674,-1.301441 4.66889,-4.825659 0.0869,-1.214022 0.28913,-2.207313 0.44948,-2.207313 0.68967,0 1.86478,1.669484 2.35003,3.338683 1.55317,5.342724 -2.41681,9.977515 -8.30573,9.696599 L 115.08369,79.52 113.0741,82.4 c -4.1499,5.947339 -9.15068,10.547095 -14.643214,13.468962 -3.284197,1.747094 -6.174147,2.77419 -11.16409,3.967748 -2.104776,0.50345 -3.980527,1.06902 -4.168336,1.25683 -0.778063,0.77806 1.007091,12.02641 3.508377,22.10646 0.785495,3.16551 0.913163,4.30634 0.913163,8.16 0,5.07267 -0.428104,7.0057 -2.115843,9.55372 -1.954679,2.95103 -5.362182,4.18241 -7.940979,2.86965 z M 71.04,95.432769 c 0,-0.135977 -0.468,-0.503173 -1.04,-0.815993 -3.066957,-1.677278 -6.300009,-6.17447 -6.422534,-8.933778 -0.08725,-1.964969 0.604146,-1.854167 1.53278,0.245639 1.22809,2.776931 2.913385,4.838926 5.358154,6.55582 3.182236,2.234797 5.707621,3.022282 9.715725,3.029631 3.148103,0.0058 3.287692,-0.02568 5.92,-1.33395 4.28656,-2.130441 7.53835,-5.46827 8.609894,-8.837706 0.272927,-0.858209 0.543456,-1.185128 0.916596,-1.107657 0.401818,0.08343 0.510321,0.414161 0.450272,1.372508 -0.169503,2.70519 -2.803768,6.523803 -5.848073,8.477328 -0.889431,0.570747 -1.545189,1.109681 -1.457239,1.197631 0.306962,0.306962 3.244762,-0.618791 5.88388,-1.854116 6.661985,-3.118359 11.471315,-7.438162 15.229405,-13.679266 1.36071,-2.259752 1.30468,-2.528261 -0.74745,-3.581398 -0.62778,-0.322169 -3.80137,-2.484701 -7.05244,-4.805626 C 96.038906,67.042718 90.782638,64.128727 88.447003,63.798948 L 87.2,63.622878 l 1.92,1.252303 c 2.502546,1.632264 4.860458,4.246903 6.18727,6.860933 1.015007,1.999724 1.256458,3.711449 0.546433,3.873835 C 95.68524,75.648477 95.062421,74.816 94.469661,73.76 91.121886,67.795951 87.112563,64.8232 81.213761,63.931286 74.374838,62.897222 67.268043,67.601894 64.59506,74.932804 c -0.629729,1.727091 -1.250477,2.298907 -1.702195,1.568012 -0.290802,-0.470528 0.409549,-3.143497 1.300246,-4.962539 1.162852,-2.374854 3.013316,-4.400665 5.575904,-6.10427 C 70.996057,64.618271 72,63.878468 72,63.79 72,63.498959 70.042514,64.051756 67.803143,64.975198 61.062457,67.754834 49.28,76.191721 49.28,78.238787 c 0,0.887846 2.402395,4.560591 5.011668,7.661761 2.968757,3.528424 9.704167,7.946916 13.978793,9.170219 C 70.51724,95.713745 71.04,95.782074 71.04,95.432769 Z m 5.215948,-5.129745 C 73.13798,89.190259 71.109377,87.403057 69.503812,84.354382 68.745074,82.913677 68.642893,82.359755 68.641538,79.68 c -0.0013,-2.621535 0.115102,-3.288787 0.84581,-4.847348 1.038752,-2.215604 2.901038,-4.128091 5.141723,-5.280328 2.394506,-1.231337 6.640061,-1.438619 9.257999,-0.452006 4.084125,1.539169 6.679241,5.314033 6.929363,10.079468 0.261397,4.98027 -1.531935,8.387837 -5.47213,10.397771 -1.832097,0.934571 -2.543101,1.114024 -4.787955,1.208452 -1.978014,0.0832 -3.051886,-0.03741 -4.3004,-0.482985 z M 81.625456,82.97406 C 82.664764,82.360126 83.52,80.808001 83.52,79.535748 83.52,77.673759 81.776229,75.84 80.005613,75.84 c -1.130008,0 -2.80847,0.864782 -3.384359,1.743701 -0.661778,1.009999 -0.713588,3.106694 -0.10489,4.244753 0.837579,1.56599 3.417955,2.144585 5.109092,1.145606 z M 62.507642,81.098948 c -0.216124,-0.563211 0.181983,-1.462156 0.728159,-1.644215 0.170543,-0.05685 0.592256,0.106147 0.937139,0.362212 0.501411,0.372281 0.556391,0.581538 0.274379,1.044313 -0.47811,0.78457 -1.673603,0.931067 -1.939677,0.23769 z M 95.050393,80.659419 C 94.642376,79.897032 95.104641,78.72 95.812076,78.72 c 0.657036,0 1.20907,0.840004 1.092488,1.662387 -0.140276,0.989531 -1.374187,1.17389 -1.854171,0.277032 z M 27.011604,135.93039 c -1.68419,-0.34452 -3.015913,-1.72401 -3.331767,-3.45128 -0.612145,-3.34756 1.279634,-5.74392 4.586878,-5.8103 2.425777,-0.0487 4.054387,1.21285 4.713552,3.65119 0.943865,3.49147 -2.142924,6.39298 -5.968663,5.61039 z m 2.49384,-0.9032 C 31.064532,134.59418 32,133.37683 32,131.78095 32,129.27509 30.415816,127.68 27.927093,127.68 c -2.023247,0 -3.607093,1.65836 -3.607093,3.77679 0,1.32454 1.261076,3.03395 2.571081,3.48515 1.392115,0.47948 1.215652,0.47372 2.614363,0.0853 z m -2.511204,-0.9445 c -1.555589,-0.62775 -2.224756,-2.97142 -1.246985,-4.36739 0.256991,-0.3669 0.896522,-0.84491 1.421181,-1.06223 1.80867,-0.74917 4.191564,0.63971 4.191564,2.44308 0,2.32418 -2.228846,3.8489 -4.36576,2.98654 z M 4.1622848,87.170245 C 1.5739779,86.047811 0.19749598,83.768367 0.21888338,80.64 0.24295087,77.119612 1.8540965,74.608623 5.1594348,72.940093 7.2759893,71.87166 7.3707515,71.66343 7.9901027,66.72 9.635738,53.585154 18.165724,36.806504 27.756048,27.84 c 3.466878,-3.241369 8.407605,-7.449236 10.115467,-8.615036 1.311311,-0.895111 1.619158,-0.991412 1.988428,-0.62202 0.240302,0.240381 0.33412,0.590221 0.208485,0.777423 C 39.942792,19.567569 38.328,20.8598 36.48,22.251992 c -4.467624,3.365687 -9.773923,8.274605 -12.210539,11.29611 -6.378969,7.910186 -11.091398,17.32563 -13.564658,27.10222 -1.1006898,4.350933 -1.990482,10.247886 -1.6716675,11.078703 0.1018878,0.265516 1.0677335,0.804525 2.1463245,1.197799 2.425237,0.884285 3.877547,2.293127 4.687549,4.547247 L 16.48721,79.2 l 6.707102,0.08671 c 3.688907,0.04769 6.841982,0.221587 7.006833,0.386438 0.186308,0.186308 0.139715,0.492538 -0.123124,0.80924 -0.371247,0.447325 -1.133459,0.482417 -6.245238,0.287527 -3.202311,-0.12209 -6.191092,-0.129442 -6.641736,-0.01634 -0.634294,0.159198 -0.940157,0.569353 -1.354216,1.815967 C 14.683286,86.042539 12.113062,87.680038 7.84,87.664349 6.2784936,87.658615 4.8440502,87.465897 4.1622848,87.170245 Z m 7.9095942,-1.473927 c 2.993987,-1.981371 3.879064,-6.675749 1.813372,-9.617976 -1.35147,-1.924941 -3.215905,-2.87557 -5.6750284,-2.893557 -2.1817429,-0.01596 -3.4069897,0.477549 -4.7336909,1.906647 -1.2370759,1.332555 -1.9078105,2.843591 -2.1033845,4.73852 -0.2165258,2.097934 0.2658894,3.600069 1.5940504,4.963521 1.5377005,1.578559 2.605685,1.946127 5.3762012,1.850326 2.0125382,-0.06959 2.6446612,-0.230227 3.7284802,-0.947481 z M 6.2636794,84.9643 C 2.9250851,83.774809 1.7397859,80.729104 3.294156,77.333913 c 0.9593787,-2.095559 2.1262328,-2.840456 4.4216202,-2.822676 2.0334462,0.01575 3.6665488,0.824249 4.7857658,2.369285 2.019145,2.787348 1.281241,6.38184 -1.609347,7.839478 -1.6289279,0.821421 -2.8306586,0.88485 -4.6285156,0.2443 z M 150.79664,65.530658 c -0.18668,-0.225862 -0.56747,-1.292256 -0.8462,-2.369764 -1.62584,-6.285277 -5.37595,-15.049562 -9.27223,-21.669908 -2.11711,-3.597268 -5.29039,-7.580851 -7.78138,-9.768382 C 131.87557,30.825764 130.464,29.370443 129.76,28.488557 127.83422,26.076172 115.09145,16.96 113.64515,16.96 c -0.39939,0 -1.49198,0.350295 -2.42799,0.778434 -3.31151,1.514718 -5.58436,1.3537 -7.7516,-0.549155 -2.73353,-2.400078 -3.07694,-6.103001 -0.84483,-9.1096155 3.12371,-4.2075583 10.48676,-2.1749323 11.60325,3.2031625 0.2015,0.97065 0.27407,2.132593 0.16125,2.582095 -0.26741,1.065459 0.24718,1.5287 5.29477,4.766441 5.91215,3.792303 8.65142,6.059192 13.90095,11.503744 4.90698,5.089285 7.18628,8.157033 10.5392,14.184894 3.106,5.583955 7.33832,16.843506 7.62939,20.297018 0.0958,1.136834 -0.38634,1.599118 -0.9529,0.91364 z M 110.72499,16.683809 c 1.48882,-0.796063 2.35809,-2.345731 2.35809,-4.203809 0,-2.9567874 -2.61495,-5.5825649 -5.51596,-5.5388011 -3.24903,0.049014 -5.1681,1.8112113 -5.16066,4.7388011 0.005,1.946998 0.98129,3.829735 2.52574,4.870537 1.39365,0.939181 4.16627,1.00297 5.79279,0.133272 z m -4.71869,-0.838237 c -1.37511,-0.597798 -2.3236,-2.212239 -2.3251,-3.957572 -0.001,-1.157227 0.1823,-1.575501 1.0868,-2.48 0.92534,-0.9253392 1.31045,-1.088 2.57589,-1.088 1.85041,0 3.21694,0.6836018 4.02907,2.015536 1.28781,2.112084 0.47756,4.584758 -1.81641,5.543242 -1.31732,0.550411 -2.22734,0.5419 -3.55025,-0.03321 z M 46.621681,54.939967 C 46.402169,45.390529 46.502799,43.84 47.342073,43.84 48.761052,43.84 61.6,53.011698 61.6,54.025367 c 0,0.36362 -1.177123,1.113434 -3.68,2.344119 -2.758342,1.356299 -4.49883,2.498353 -6.949426,4.56 C 49.17239,62.442269 47.503472,63.68 47.261868,63.68 c -0.356748,0 -0.477027,-1.642089 -0.640187,-8.740033 z m 61.646299,4.622223 c -2.72708,-2.274262 -5.59493,-4.041901 -8.12813,-5.009889 -2.235177,-0.85411 -3.021962,-1.597501 -2.667734,-2.520604 0.104402,-0.272066 1.147885,-1.125658 2.318853,-1.896872 9.357281,-6.162825 11.556311,-7.372238 13.085061,-7.196464 0.87809,0.100963 0.88358,0.116559 0.82495,2.345044 -0.064,2.432175 -1.84856,13.943531 -2.34349,15.116595 -0.44397,1.052308 -1.00571,0.899976 -3.08951,-0.83781 z M 71.649347,50.861055 c -0.549672,-0.339716 -0.159656,-2.74893 0.86713,-5.35645 1.41094,-3.58308 5.542783,-12.001279 6.270918,-12.776344 C 79.163686,32.327717 79.655542,32 79.880407,32 c 0.780527,0 2.385405,2.883696 4.134788,7.429518 0.967381,2.513765 2.357122,5.979926 3.088313,7.70258 1.168421,2.752746 1.272583,3.188954 0.860008,3.601529 -0.392745,0.392745 -0.780965,0.409987 -2.376474,0.105544 -2.254983,-0.430278 -9.523352,-0.450691 -11.889874,-0.03339 -0.914558,0.161267 -1.836077,0.186142 -2.047821,0.05528 z M 48.598345,18.890425 c -2.561801,-0.774838 -3.971862,-3.074865 -3.935527,-6.419452 0.03981,-3.6649911 1.99492,-6.0089798 5.651838,-6.7760263 2.499319,-0.5242378 4.132833,0.00265 6.011385,1.9389633 3.727775,3.842398 2.750266,9.621968 -1.893792,11.197145 -1.219861,0.413754 -4.550171,0.447645 -5.833904,0.05937 z m 6.044054,-1.531509 C 57.201382,16.031267 57.830213,12.725478 56.121107,9.5852881 54.448503,6.5121626 52.346453,5.7639886 49.414768,7.1983283 46.981993,8.3885742 45.76,10.257394 45.76,12.787642 c 0,3.561987 2.284994,5.65448 5.842399,5.350201 1.013319,-0.08667 2.381319,-0.437191 3.04,-0.778927 z m -5.538828,-0.877394 c -2.574326,-1.317927 -2.768088,-4.903857 -0.385216,-7.1291641 2.454234,-2.2919507 6.022369,-1.0005643 6.971171,2.5230211 0.422981,1.570828 0.01425,3.050096 -1.143196,4.137463 -1.025363,0.963279 -3.979724,1.217681 -5.442759,0.46868 z"
     id="path2" /></svg>
