<?xml version="1.0" encoding="UTF-8" standalone="no"?>
<!-- Created with Inkscape (http://www.inkscape.org/) -->

<svg
   version="1.1"
   id="svg1"
   width="160"
   height="160"
   viewBox="0 0 160 160"
   xml:space="preserve"
   xmlns="http://www.w3.org/2000/svg"
   xmlns:svg="http://www.w3.org/2000/svg"><defs
     id="defs1" /><path
     style="display:inline;fill:#832a35"
     d="m 79.445146,159.28 c -0.491655,-0.62787 -2.75266,-4.95773 -8.855429,-16.95826 -7.011868,-13.78819 -7.02,-13.06995 0.130802,-11.55369 3.387035,0.71819 4.832516,0.85157 9.439481,0.87102 4.807635,0.0203 5.967275,-0.0851 9.975949,-0.90719 3.777625,-0.77466 4.620218,-0.86023 5.04,-0.51184 0.277228,0.23008 0.504051,0.63351 0.504051,0.89651 0,0.58556 -13.618826,27.22 -14.318836,28.00345 -0.585096,0.65484 -1.47063,0.72879 -1.916018,0.16 z M 26.133333,141.86667 c -0.441204,-0.44121 -0.143822,-2.25292 2.516161,-15.32894 3.622461,-17.8074 3.298764,-16.59752 4.470506,-16.70934 0.851866,-0.0813 1.14951,0.15771 2.642441,2.12178 2.388725,3.14258 7.816307,8.26244 11.015978,10.39143 1.499278,0.99758 4.223475,2.57083 6.053771,3.4961 4.74495,2.39871 4.69199,2.94552 -0.51219,5.28838 -24.835674,11.18073 -25.481592,11.44566 -26.186667,10.74059 z M 130.56,141.68242 c -1.79202,-0.82812 -12.13591,-5.48081 -19.04,-8.5642 -4.048,-1.80785 -7.61834,-3.51108 -7.93409,-3.78496 -1.18552,-1.0283 -0.57321,-1.71825 3.24285,-3.65399 7.04914,-3.57576 13.25842,-8.76011 17.40133,-14.52902 0.77747,-1.08261 1.20059,-1.39025 1.91208,-1.39025 0.65592,0 0.99172,0.20528 1.19033,0.72768 0.60709,1.59677 5.93043,28.33803 5.93867,29.83232 0.009,1.55195 -0.02,1.60198 -0.95117,1.66606 -0.528,0.0363 -1.32,-0.1003 -1.76,-0.30364 z M 70.24,125.30448 C 61.383589,123.68082 54.082965,120.5134 47.043974,115.24073 45.721788,114.25033 41.976,110.83287 38.72,107.64638 30.947865,100.04016 28.685036,98.604166 25.06077,98.978223 c -2.346657,0.242197 -3.753059,1.093287 -3.877241,2.346337 -0.07771,0.78418 0.186697,1.27321 1.36,2.51534 1.827993,1.93522 1.985244,3.3982 0.539216,5.01659 -0.79834,0.8935 -1.119854,1.02551 -2.48,1.01824 -3.131682,-0.0167 -6.746569,-2.4872 -8.039063,-5.49405 -0.797534,-1.85539 -0.69407,-5.957982 0.193559,-7.675099 C 15.066456,92.23841 18.953573,90.24 25.333474,90.24 h 3.457313 l 0.940232,-1.862589 C 32.528752,82.835133 37.948804,76.55404 43.119408,72.862115 50.662782,67.475979 59.015942,64.209223 69.6,62.506076 c 2.816,-0.45314 5.298331,-0.873223 5.516292,-0.933517 0.281324,-0.07782 0.349455,-0.646754 0.234847,-1.961093 C 73.795113,41.766842 72.889209,36.706405 69.884008,29.071727 67.766335,23.691802 67.148849,20.929757 67.140527,16.8 67.125672,9.4279581 69.876646,3.9604986 74.826981,1.5234567 c 1.933431,-0.95182491 2.354906,-1.03589242 5.159225,-1.02906068 2.618408,0.006379 3.31467,0.12815539 4.883575,0.85413968 5.181712,2.3977497 8.014349,7.7849634 8.040365,15.2914643 0.01466,4.229242 -0.651711,7.260511 -2.734366,12.43846 -2.588622,6.435898 -3.749977,12.121981 -4.877687,23.88154 -0.890814,9.289247 -0.907991,8.8 0.30896,8.8 1.612955,0 10.085537,1.627864 13.353715,2.565692 14.140272,4.057656 24.827152,12.024595 30.749112,22.923098 l 1.22987,2.263409 3.41013,0.16698 c 3.9647,0.194135 6.37174,0.922506 8.98044,2.717485 5.43607,3.740414 6.42293,11.007006 2.07317,15.265436 -3.28772,3.21869 -8.3429,3.23152 -9.40153,0.0239 -0.48263,-1.46241 -0.0944,-2.51607 1.47102,-3.99264 0.88832,-0.83788 1.1011,-1.26282 1.02415,-2.04525 -0.20478,-2.082172 -3.74816,-3.297555 -6.80478,-2.334042 -2.40017,0.756592 -3.85688,1.920952 -10.83253,8.658582 -7.45897,7.20445 -11.20381,10.09597 -16.37982,12.64744 -7.682006,3.78677 -13.761878,5.16558 -23.52,5.33392 -5.839875,0.10075 -7.016664,0.0295 -10.72,-0.64948 z m -7.925243,-14.86387 c -2.346324,-2.5971 -4.808727,-7.0205 -5.63391,-10.12061 -0.726701,-2.730127 -0.926046,-6.375995 -0.517377,-9.462438 0.751248,-5.673744 2.639457,-9.447763 6.9126,-13.816418 1.515839,-1.549721 2.632203,-2.894228 2.480809,-2.987794 -0.151394,-0.09357 -1.667829,0.209256 -3.369854,0.672939 -7.929087,2.160121 -14.045159,5.528024 -19.401335,10.683624 -2.52149,2.427065 -5.36706,5.919526 -5.85134,7.181539 -0.125291,0.326502 0.773139,1.098456 2.962917,2.545813 1.728503,1.142473 4.438733,3.267458 6.022733,4.72219 3.912141,3.592875 8.05943,7.031095 10.391029,8.614455 2.326041,1.57958 6.393595,3.57336 6.790125,3.32829 0.156606,-0.0968 -0.197273,-0.7095 -0.786397,-1.36159 z m 38.322783,-0.1953 c 3.78518,-1.88401 7.82848,-4.95761 12.16246,-9.24554 4.13303,-4.089116 6.65317,-6.252325 8.64137,-7.417489 0.79124,-0.463702 1.43863,-1.036549 1.43863,-1.272993 0,-0.712221 -3.69116,-5.382554 -5.78932,-7.325075 -4.95059,-4.583379 -10.35257,-7.61159 -17.506524,-9.813716 -3.591834,-1.105636 -5.64378,-1.489545 -5.466725,-1.022798 0.06741,0.177711 0.842569,0.941813 1.722569,1.698004 3.591944,3.086588 6.6305,8.072668 7.69944,12.634297 0.73875,3.1526 0.49214,10.104422 -0.4519,12.739 -1.13887,3.17824 -2.60451,5.85281 -4.400472,8.03013 -0.949887,1.15159 -1.727068,2.16964 -1.727068,2.26234 0,0.41188 0.993212,0.0699 3.67754,-1.26616 z m -17.035214,0.64536 C 91.106824,109.3004 96.702248,102.76998 97.179735,95.044491 97.497054,89.910445 95.849364,85.592275 92.168544,81.911456 86.826068,76.568979 79.144911,75.25549 72.48,78.544687 68.361064,80.577421 65.340173,83.932208 63.794684,88.189981 59.232011,100.76 70.495149,113.6682 83.602326,110.89067 Z"
     id="path4" /></svg>
