<?xml version="1.0" encoding="UTF-8" standalone="no"?>
<!-- Created with Inkscape (http://www.inkscape.org/) -->

<svg
   version="1.1"
   id="svg1"
   width="360"
   height="360"
   viewBox="0 0 360 360"
   xmlns="http://www.w3.org/2000/svg"
   xmlns:svg="http://www.w3.org/2000/svg">
  <defs
     id="defs1" />
  <g
     id="layer1"
     style="fill:#fffde2;fill-opacity:1" />
  <path
     style="display:inline;fill:#e6debd;fill-opacity:1"
     d="m 0,288.11433 v -71.88567 l 7.25,2.03203 c 9.775602,2.7399 30.128107,2.91301 40.25,0.34235 27.54052,-6.99447 50.346199,-29.14351 57.91757,-56.24994 4.69137,-16.79571 4.47041,-30.97563 -0.73844,-47.38754 C 100.61077,102.14709 94.72435,92.870496 84.078261,82.5 63.138705,62.102501 35.217505,54.619824 7.25,61.910589 L 0,63.800569 V 31.900285 C 0,0.29738167 0.01931525,0 2.0719563,0 c 1.9510142,0 2.023978,0.33563306 1.25,5.75 C 2.8698803,8.9125 2.5992302,16.675 2.7205115,23 2.8417928,29.325 3.034214,39.5625 3.148114,45.75 3.334811,55.892118 3.5346718,57 5.1776025,57 c 1.0023186,0 2.7880233,-0.965626 3.9682325,-2.145835 2.060284,-2.060284 2.112224,-2.62841 1.302778,-14.25 C 9.3702499,25.121591 9.3661977,16.309724 10.433275,7.25 L 11.287199,0 h 5.74511 5.745109 l 0.6411,3.417358 c 0.770581,4.1075468 8.989815,16.844753 13.700326,21.231159 5.559214,5.176714 14.803185,11.178612 20.499582,13.309908 8.501973,3.180995 22.217069,4.648364 30.373686,3.24966 C 109.10275,37.588013 126.93597,23.633377 134.57866,4.7537484 136.46055,0.10494086 136.5902,0.00741979 140.8936,0.00374837 L 145.2872,0 144.46273,7.25 c -0.45347,3.9875 -0.85558,9.725 -0.8936,12.75 -0.0689,5.478574 -0.0566,5.501211 3.14656,5.810799 3.76309,0.363707 3.84119,0.153776 4.76596,-12.810799 0.84247,-11.8108476 1.23259,-13 4.26485,-13 h 2.52969 l -0.83547,6.75 c -0.45951,3.7125 -0.85915,9.45 -0.88809,12.75 l -0.0526,6 h 3 c 2.46821,0 3.04329,-0.443156 3.2442,-2.5 0.22375,-2.290582 1.58305,-11.754052 2.83682,-19.75 C 166.00386,0.55335843 166.53056,0 168.67448,0 h 2.58385 l -0.84695,6.25 c -0.46582,3.4375 -0.86145,9.4 -0.87916,13.25 l -0.0322,7 3.09593,0.301868 3.09594,0.301868 L 177.0315,13.551868 178.37113,0 h 2.92794 c 2.75717,0 2.89366,0.18953698 2.34031,3.25 -0.32318,1.7875 -0.89093,8.073292 -1.26164,13.968426 l -0.67403,10.718426 2.79962,1.064415 c 1.53979,0.585428 3.25772,0.911716 3.81762,0.725084 0.55989,-0.186632 1.07663,-3.463911 1.14829,-7.282841 0.0717,-3.818931 0.51143,-10.43101 0.97726,-14.69351 L 191.29347,0 h 3.81577 c 3.3168,0 4.60044,0.77499465 9.81653,5.9266898 9.94977,9.8269342 18.298,14.7813262 33.07423,19.6284422 7.61011,2.496379 9.9657,2.794017 22.5,2.84296 11.79156,0.04604 15.26196,-0.311605 22,-2.267247 C 294.84877,22.546745 307.12109,15.641973 316.05819,7.25 322.28063,1.4071078 324.3927,0 326.94046,0 h 3.16132 l -2.51915,3.3027765 c -3.70003,4.8509924 -5.01064,12.4326705 -4.00727,23.1815205 0.85911,9.203521 0.92525,18.125977 0.28548,38.515703 -0.19846,6.325 -0.0303,12.306128 0.37366,13.291397 0.69164,1.686869 0.90217,1.66743 3.6081,-0.333151 2.80964,-2.077254 2.89187,-2.406513 3.69403,-14.791396 C 331.98787,56.200082 332.19009,46.675 331.98602,42 331.32769,26.918482 331.47869,9.6247634 332.31127,4.75 333.03129,0.53428837 333.40996,0 335.67777,0 h 2.55522 l -0.86649,6.75 c -0.47658,3.7125 -0.69357,11.925 -0.48222,18.25 0.65237,19.522793 0.56892,29.189521 -0.32157,37.25 -0.7231,6.545362 -0.62731,7.75 0.61624,7.75 2.87874,0 6.1589,-4.855826 6.92811,-10.256122 0.94269,-6.618188 0.96647,-22.68387 0.0433,-29.243878 -0.387,-2.75 -0.2959,-10.7375 0.20244,-17.75 L 345.25887,0 h 2.99779 2.9978 l -0.65621,5.25 c -1.65061,13.205748 -1.80534,21.490465 -0.55185,29.548266 1.04127,6.693617 1.07883,10.411511 0.17733,17.553669 -0.62907,4.983753 -0.95118,9.253947 -0.71581,9.489319 1.08612,1.086124 6.76808,-2.429813 7.6721,-4.74742 1.30231,-3.338669 1.22593,-13.562959 -0.19322,-25.86504 -0.9243,-8.012437 -0.84601,-11.566212 0.44378,-20.143796 0.86135,-5.7282511 1.79184,-10.64075109 2.06776,-10.91666666 C 359.77425,-0.10758423 360,14.108679 360,31.760026 v 32.09336 l -5.49092,2.513828 c -21.64237,9.908203 -38.10783,29.179857 -44.71318,52.333606 -3.01663,10.57419 -3.2148,31.57247 -0.38976,41.29918 7.14633,24.60509 23.10305,43.56252 45.38597,53.92094 L 360,216.34187 v 71.99573 c 0,39.59766 -0.23999,71.75574 -0.53331,71.46242 -0.29332,-0.29332 -1.23199,-5.20582 -2.08593,-10.91666 -1.24675,-8.33788 -1.3437,-12.15632 -0.49212,-19.38336 1.55104,-13.16304 1.57729,-16.91419 0.19589,-28 -1.02799,-8.24966 -1.00293,-11.58429 0.14316,-19.05132 1.02292,-6.66452 1.15018,-11.41107 0.48262,-18 -1.22856,-12.12598 -1.25918,-23.2079 -0.0932,-33.74619 1.04529,-9.44768 0.8465,-10.04606 -3.718,-11.19168 l -2.58973,-0.64998 -0.86862,9.31958 c -0.47774,5.12578 -0.79507,14.26959 -0.70518,20.31959 0.0899,6.05 0.15058,16.175 0.13487,22.5 -0.0426,17.15551 -0.0478,29.08838 -0.0186,43 0.0144,6.875 -0.0581,17.225 -0.16117,23 -0.10306,5.775 0.20751,13.3125 0.69017,16.75 l 0.87754,6.25 h -2.98568 -2.98569 l -0.69276,-9.17685 c -0.91519,-12.12331 -1.71431,-13.45293 -4.65824,-7.75068 -1.77018,3.42875 -2.23862,5.83743 -2.07657,10.67753 0.20167,6.02359 0.12046,6.25 -2.24174,6.25 -1.34804,0 -2.6403,-0.5625 -2.8717,-1.25 -0.33131,-0.98439 -0.76115,-0.96904 -2.02286,0.0723 -0.88118,0.72724 -2.75433,1.17724 -4.16256,1 l -2.56041,-0.32226 4.46456,-6.58607 c 16.06366,-23.69698 17.81635,-56.16129 4.42238,-81.91393 -10.12038,-19.45849 -28.15253,-34.31844 -48.96232,-40.34888 -19.00703,-5.50802 -36.35106,-4.29638 -56.21009,3.92679 -17.05104,7.06044 -34.60536,25.62324 -41.73134,44.12877 -3.4346,8.91935 -5.98677,21.15705 -5.97576,28.65379 0.024,16.35656 6.87804,37.02809 16.21016,48.88953 l 2.95035,3.75 h -3.49439 c -3.21308,0 -3.82486,-0.52327 -7.59951,-6.5 -2.25782,-3.575 -4.3853,-6.5 -4.72773,-6.5 -0.34244,0 -0.32294,2.925 0.0433,6.5 l 0.66595,6.5 h -2.88111 c -2.85605,0 -2.88829,-0.0674 -3.70569,-7.75 -1.65252,-15.5317 -2.29879,-50.15154 -1.16673,-62.5 l 0.80216,-8.75 h -3.01698 c -4.75182,0 -5.49012,2.5118 -4.53613,15.43269 0.44943,6.08702 0.66419,15.56731 0.47725,21.06731 -0.6075,17.87321 -0.47535,29.87452 0.39915,36.25 l 0.85729,6.25 H 168.1425 C 165.12586,360 165,359.8344 165,355.8653 c 0,-2.27409 -0.5259,-6.98888 -1.16867,-10.47731 -0.97286,-5.27988 -0.87185,-8.39894 0.60285,-18.6153 1.66007,-11.50054 1.66942,-12.96477 0.14857,-23.27269 -0.89263,-6.05 -1.50142,-13.25 -1.35286,-16 0.25712,-4.7595 0.14107,-5.01491 -2.41263,-5.30993 -4.3966,-0.50793 -5.24084,2.4343 -4.2338,14.75507 0.47449,5.80517 0.6994,15.50486 0.4998,21.55486 -0.65934,19.98496 -0.58291,28.92479 0.30134,35.25 l 0.87373,6.25 h -2.61011 c -3.11513,0 -3.29894,-0.61109 -4.39718,-14.61836 -0.47867,-6.10524 -0.38813,-13.05207 0.2283,-17.51518 0.56189,-4.06825 0.729,-11.88999 0.37135,-17.38164 -0.35764,-5.49165 -0.69536,-14.14732 -0.75048,-19.23482 L 151,282 h -3.48095 c -4.47201,0 -5.04123,2.01745 -4.04838,14.34837 0.40528,5.0334 0.80267,21.41412 0.8831,36.4016 l 0.14623,27.24996 -3.86658,4e-5 c -3.7103,3e-5 -3.84009,-0.11112 -3.2112,-2.74997 0.36046,-1.5125 0.91818,-7.03558 1.23937,-12.27352 C 140.4332,316.0856 121.04172,290.17536 92.634107,283.47614 60.652029,275.93397 27.219613,297.4619 20.383567,330 c -1.523887,7.25337 -1.451007,15.47241 0.230437,25.98758 L 21.255616,360 h -4.984208 -4.984209 l -0.85686,-7.25 c -0.4712733,-3.9875 -0.7849361,-10.7375 -0.6970287,-15 0.1862837,-9.03262 0.2109325,-34.32061 0.04435,-45.5 -0.063515,-4.2625 0.2506837,-11.24018 0.6982177,-15.50596 0.53039,-5.05552 0.374981,-11.45782 -0.446351,-18.38814 -1.0211702,-8.61653 -1.0146939,-12.69537 0.03416,-21.51509 1.372128,-11.5381 1.200292,-12.26406 -3.1574443,-13.33924 L 4.3124873,222.86161 3.0062915,233.449 c -0.920726,7.46296 -1.0501487,13.60689 -0.4385595,20.8192 0.4771999,5.62749 0.6934922,14.2818 0.4806494,19.2318 -0.2128427,4.95 -0.3628432,13.5 -0.3333344,19 0.1488604,27.74534 0.1444196,34.83458 -0.027875,44.5 -0.1029445,5.775 0.1726735,13.3125 0.6124846,16.75 0.7540953,5.8939 0.6828753,6.25 -1.25,6.25 C 0.00245632,360 0,359.91385 0,288.11433 Z M 20.217833,313.75 c 2.001031,-3.76553 2.294669,-5.95989 2.575939,-19.25 0.383694,-18.1297 0.459746,-29.93888 0.299464,-46.5 -0.06654,-6.875 -0.0022,-14.525 0.142893,-17 0.257992,-4.39975 0.192231,-4.50692 -2.951817,-4.8108 -3.686195,-0.35627 -3.584553,-0.60188 -5.227517,12.63156 -0.822868,6.62788 -0.705264,10.61271 0.57804,19.58601 1.476269,10.32257 1.478055,12.1738 0.02135,22.1227 -1.286715,8.78791 -1.391006,12.77434 -0.547141,20.914 C 16.437667,314.25896 16.983563,318 17.524989,318 c 0.2389,0 1.45068,-1.9125 2.692844,-4.25 z M 139.20006,306.18974 C 138.54003,302.99417 138,296.07168 138,290.80644 c 0,-8.87899 -0.15202,-9.61293 -2.09645,-10.12141 -3.53463,-0.92433 -4.70822,0.25928 -5.42506,5.47138 -1.13952,8.28527 0.25145,15.27139 4.35068,21.85116 4.48718,7.2025 6.09583,6.53348 4.37089,-1.81783 z M 32.18479,296.25 c 2.910659,-3.12794 4.357795,-12.60746 4.045469,-26.5 -0.311789,-13.86865 -0.324841,-35.15517 -0.02407,-39.25 0.290923,-3.96073 0.259443,-4 -3.206192,-4 -3.481776,0 -3.504037,0.0286 -4.275344,5.5 -0.42644,3.025 -0.505344,14.275 -0.175344,25 0.390002,12.67504 0.18925,22.57571 -0.57358,28.28778 C 26.84441,293.75913 27.171664,299 28.831961,299 c 0.436621,0 1.945394,-1.2375 3.352829,-2.75 z m 93.0406,-8.5 c 0.50086,-6.28457 -0.13841,-7.27696 -3.88789,-6.03549 -3.92001,1.29794 -4.59922,6.80858 -1.16483,9.45062 3.71329,2.8566 4.60067,2.25682 5.05272,-3.41513 z m -79.269876,-2.55167 c 2.324758,-2.32476 2.919242,-3.98443 3.492374,-9.75 0.384711,-3.87009 0.220336,-9.82795 -0.371036,-13.44833 -1.359792,-8.32466 -1.36838,-20.05566 -0.02002,-27.3496 1.53138,-8.28401 -0.440943,-12.12075 -4.981598,-9.69066 -2.119957,1.13456 -3.594144,11.36744 -3.319269,23.04026 0.09714,4.125 0.296365,14.8125 0.442729,23.75 0.146365,8.9375 0.646151,16.25 1.110635,16.25 0.464485,0 2.105269,-1.26075 3.646186,-2.80167 z m 65.699406,-2.6552 C 110.99922,280.8344 107,280.39547 107,282.03222 c 0,1.0178 4.14776,3.05557 4.87354,2.39435 0.20544,-0.18717 0.10707,-1.03472 -0.21862,-1.88344 z m -52.832991,-2.6309 c 3.816323,-1.33038 4.805483,-5.16079 3.684786,-14.26892 -0.415742,-3.37882 -1.037329,-10.52156 -1.381305,-15.87275 -0.567044,-8.82145 -0.877883,-9.98171 -3.330737,-12.4326 l -2.705326,-2.70316 -1.142354,2.9326 c -0.77625,1.99275 -0.90492,6.13742 -0.401491,12.9326 0.407474,5.5 0.871754,14.275 1.031732,19.5 0.34415,11.24016 0.327262,11 0.773543,11 0.192927,0 1.754946,-0.4895 3.471152,-1.08777 z m 39.624324,-3.37668 C 97.375814,275.72598 95.9375,275.0493 95.25,275.0318 c -2.146299,-0.0546 -1.365218,2.98844 1,3.89594 3.107676,1.19238 4.67649,-0.5164 2.196253,-2.39219 z M 344.96728,271.25 c -0.018,-4.8125 -0.4219,-11.76761 -0.89757,-15.4558 -0.55985,-4.34088 -0.42828,-11.39424 0.37307,-20 1.56263,-16.78118 1.19365,-20.20484 -2.45781,-22.8049 -1.53654,-1.09411 -3.21546,-1.9893 -3.73093,-1.9893 -0.53269,0 -0.91507,5.07158 -0.88591,11.75 0.0282,6.4625 -0.3144,15.35 -0.76139,19.75 -0.96646,9.51358 1.16506,25.93503 4.28062,32.97827 3.0323,6.85501 4.11716,5.73071 4.07992,-4.22827 z M 74.827303,271.5 c 0.180016,-2.75 0.02243,-7.89907 -0.350197,-11.44239 -0.568788,-5.40864 -1.159772,-6.8929 -3.683058,-9.25 -4.287149,-4.00479 -5.163092,-3.61958 -4.416864,1.94239 0.350509,2.6125 0.925765,9.16103 1.278348,14.5523 l 0.641058,9.8023 3.101705,-0.3023 c 2.963957,-0.28887 3.116241,-0.52435 3.429008,-5.3023 z m 13.30608,1 c 0.404991,-2.46545 0.16233,-5.19668 -0.632525,-7.11931 -1.300277,-3.14515 -5.226426,-6.66833 -6.531916,-5.8615 -0.697601,0.43115 -0.205924,13.75626 0.601365,16.29778 0.247912,0.78048 1.536071,1.18785 3.162167,1 2.347264,-0.27116 2.838813,-0.89511 3.400909,-4.31697 z m 40.896537,1.39178 c 12.4328,-5.34845 19.04235,-20.90543 14.84044,-34.93015 -1.78077,-5.94367 -7.73477,-12.91341 -13.75873,-16.10594 -4.58193,-2.42829 -6.52757,-2.8524 -13,-2.83373 -12.2218,0.0353 -20.472337,4.96252 -25.812746,15.41547 -5.715951,11.18801 -3.401357,23.78764 6.078471,33.08852 8.732225,8.56738 19.835095,10.44957 31.652565,5.36583 z m -16.70352,-2.98939 c -18.490521,-3.42028 -25.382326,-25.91251 -12.02623,-39.24904 13.36861,-13.34902 37.5157,-5.52661 39.40353,12.76472 0.74913,7.2584 -0.17478,11.44051 -3.70479,16.76986 -4.95534,7.4812 -14.52203,11.40707 -23.67251,9.71446 z m 12.66415,-6.75766 c 8.87618,-4.76034 12.4839,-15.37408 8.12804,-23.91228 -5.42044,-10.62493 -19.12236,-13.55809 -27.78893,-5.94875 C 92.814253,245.27238 100.09206,266 116.46577,266 c 3.02397,0 6.45961,-0.74771 8.52478,-1.85527 z m -14.692,-5.10425 C 99.417943,252.40619 104.06437,235 116.71594,235 123.08459,235 130,241.68074 130,247.83327 c 0,9.78298 -11.40086,16.26838 -19.70145,11.20721 z m 11.31235,-5.38222 c 5.35741,-4.60824 2.31576,-12.99159 -4.71361,-12.99159 -5.69374,0 -9.8714,7.20281 -6.61549,11.40592 3.32521,4.29257 7.50243,4.87724 11.3291,1.58567 z m -6.50662,-3.57359 C 113.1529,248.85038 114.50241,246 117.03817,246 c 1.58772,0 2.02287,0.53049 1.78138,2.17167 -0.36697,2.49391 -1.70645,3.18362 -3.71527,1.913 z m 61.18908,24.79598 c 3.79614,-0.76938 6.1391,-1.82019 6.79624,-3.04808 1.67702,-3.13353 0.27762,-3.5898 -6.80569,-2.21897 -3.73115,0.72209 -13.10641,1.32943 -20.83391,1.34964 -13.96866,0.0366 -16.45,0.59232 -16.45,3.6845 0,2.44025 25.61305,2.60021 37.29336,0.23291 z m 3.61923,-11.37594 c 4.73124,-1.10994 8.25809,-2.58449 9.75,-4.07639 2.75971,-2.75971 3.05685,-4.86611 0.58741,-4.16408 -13.7526,3.90971 -19.21142,4.92216 -29.25,5.42501 -11.56996,0.57956 -14,1.2853 -14,4.06592 0,1.29479 1.81924,1.43739 12.75,0.99941 7.0125,-0.28099 16.08566,-1.29343 20.16259,-2.24987 z m -9.90799,-9.0054 c 16.39573,-2.4626 28.84621,-7.50839 43.11528,-17.47328 24.6899,-17.24233 39.59742,-42.46348 42.86812,-72.52603 2.1038,-19.33708 -1.07532,-36.84864 -9.98491,-55 C 217.64199,51.720431 146.07597,34.420767 93.75,72.695837 c -4.593935,3.360343 -6.127037,6.671903 -3.5,7.560137 0.6875,0.232453 4.66984,-1.970097 8.849645,-4.894554 10.154555,-7.104772 20.321675,-11.803681 32.408865,-14.978307 14.5148,-3.812224 32.80624,-3.806393 46.91997,0.01496 25.46059,6.893563 46.09352,22.088262 58.89547,43.372367 8.71948,14.49674 12.13211,25.22384 13.70242,43.07167 2.45777,27.93433 -7.60281,54.99451 -27.96496,75.21802 -17.86305,17.74143 -37.54696,26.58193 -63.65449,28.58872 -8.81199,0.67734 -9.82103,1.10842 -8.80318,3.76091 0.78642,2.04937 6.1866,2.0743 19.40086,0.0896 z m 160.88796,-7.74456 c 0.0775,-4.00441 0.56747,-11.02034 1.08876,-15.59096 C 333.76846,215.49436 329.76646,199 324.17747,199 c -1.24807,0 -1.34376,1.26408 -0.62455,8.25 1.10718,10.75421 1.1338,25.56954 0.0608,33.82799 -0.8441,6.4967 -0.81485,6.62334 2.36655,10.24676 1.77167,2.01782 3.56999,3.4532 3.99627,3.18975 0.42629,-0.26346 0.8385,-3.75535 0.91602,-7.75975 z M 83,249.97569 c 0,-1.21702 -3.505127,-5.50407 -8.789294,-10.75 -4.834111,-4.79913 -10.571611,-10.89995 -12.75,-13.55739 C 58.506341,222.06425 57.055358,221.01159 55.75,221.52529 54.7875,221.90407 54,222.66453 54,223.2152 54,226.50628 78.429299,252 81.582977,252 82.36234,252 83,251.08906 83,249.97569 Z m 92.03667,-6.90715 c 27.8315,-6.15589 52.87404,-27.0855 63.79413,-53.31674 5.04643,-12.12208 6.33791,-18.26933 6.88082,-32.7518 0.54001,-14.40484 -0.85148,-23.28057 -5.66802,-36.15392 -2.82318,-7.54563 -10.54987,-20.24323 -16.60992,-27.295786 C 212.89335,81.283675 193.38526,69.442662 177,65.366003 166.60402,62.779479 142.47981,62.77437 132.5,65.356579 118.40331,69.004003 96,81.705676 96,86.050441 c 0,2.551136 2.168363,2.990636 4.5,0.912095 4.61008,-4.109665 19.42586,-12.167847 26.44477,-14.383103 12.85072,-4.055844 19.2471,-4.914868 31.87539,-4.280815 14.39226,0.722621 23.30257,3.135609 36.37585,9.850893 15.24661,7.831648 30.59833,23.492659 37.10298,37.850489 9.95767,21.97974 11.35868,44.58189 4.07547,65.74857 -11.65743,33.87916 -44.42396,58.02008 -79.01747,58.21654 -4.6706,0.0265 -6.28928,0.41605 -6.75325,1.62513 -0.33562,0.87464 -0.35721,1.99964 -0.048,2.5 0.96566,1.56246 15.54935,0.95382 24.4809,-1.0217 z m 144.12758,-9.8208 c 0.97464,-5.68369 0.98266,-9.00273 0.0376,-15.53945 C 318.54081,213.13664 318,205.21399 318,200.10239 318,190.64169 316.26131,185 313.34567,185 c -2.64859,0 -3.10227,8.75312 -2.01814,38.93765 0.49,13.64267 0.64668,14.53447 2.84551,16.19601 1.27983,0.96709 2.64756,1.43955 3.03941,1.0499 0.39184,-0.38965 1.27015,-3.96077 1.9518,-7.93582 z m -234.772804,4.17455 c 0.410579,-1.06995 -2.194058,-4.61011 -8.093132,-11 C 71.514108,221.24003 67.294912,217 66.922323,217 c -0.372588,0 -1.161615,0.5834 -1.753393,1.29645 -1.428355,1.72106 0.622757,4.7791 9.192068,13.7046 6.824505,7.10816 8.94361,8.2535 10.030448,5.42124 z m 88.517314,-4.48895 c 17.57547,-3.84328 34.25152,-14.70754 46.11548,-30.04373 23.21747,-30.01254 22.21984,-71.33703 -2.44064,-101.09775 C 207.22874,90.502236 194.14152,81.797134 179.00814,76.798138 170.10326,73.856597 168.58003,73.657741 155,73.663909 c -13.14356,0.006 -15.29516,0.266773 -23,2.787919 -16.17556,5.292899 -31.86184,15.138688 -30.35888,19.055329 0.58876,1.534282 3.93004,2.082734 4.52555,0.742843 0.68659,-1.544829 7.58338,-6.098982 14.54695,-9.605781 11.94783,-6.016832 20.9049,-8.082336 34.78638,-8.021759 10.71297,0.04675 13.0189,0.390984 21.5,3.209572 21.4335,7.123155 35.93306,19.451328 45.47865,38.667968 5.8465,11.76983 7.81457,20.26115 7.88034,34 0.10551,22.04137 -9.17603,42.11954 -26.343,56.98616 -13.23156,11.45854 -27.69128,17.06053 -47.28961,18.32096 l -10.77362,0.69288 1.67619,2.38687 c 1.62946,2.32032 1.94129,2.36825 11.18239,1.71866 5.2284,-0.36752 11.57224,-1.12001 14.09742,-1.67219 z m 133.71191,-1.55812 c 0.36233,-1.44363 0.2856,-6.50613 -0.17052,-11.25 -0.80606,-8.38354 -0.85855,-13.82858 -0.37956,-39.37522 0.18321,-9.77137 -0.20395,-13.96987 -1.91345,-20.75 -2.36965,-9.39843 -2.94703,-28.21584 -1.08925,-35.5 2.78369,-10.91458 4.096,-37.836813 2.47791,-50.834849 -0.56419,-4.532112 -0.41413,-10.626472 0.44542,-18.088924 1.04541,-9.076115 1.05553,-13.17213 0.0523,-21.165151 -0.68421,-5.451092 -1.45066,-10.248921 -1.70324,-10.661843 -0.25258,-0.412922 -1.66184,-0.120655 -3.1317,0.649482 l -2.67247,1.400249 -0.32709,17.850518 C 298.02909,53.467267 297.9674,65.1 298.0719,69.5 c 0.18038,7.594904 0.22538,18.908281 0.16908,42.5 -0.0879,36.83002 -0.0851,53.54402 0.0111,67.25 0.0434,6.1875 -0.0728,15.525 -0.25837,20.75 -0.18555,5.225 0.006,14 0.42641,19.5 0.69755,9.13299 0.99422,10.19465 3.42183,12.24503 3.40059,2.87217 3.97624,2.82763 4.77874,-0.36981 z M 89.358751,225.73106 c -2.36403,-4.07427 -12.553576,-13.87028 -13.8929,-13.35633 -2.900494,1.11302 -1.352119,4.46741 5.127766,11.10872 5.890263,6.03701 6.755238,6.59627 8.10875,5.24275 0.979306,-0.9793 1.211436,-2.03854 0.656384,-2.99514 z m 203.911769,-3.821 c -0.20792,-4.90156 -0.24657,-15.75388 -0.14747,-41.41006 0.0191,-4.95 0.0241,-14.85 0.0111,-22 -0.013,-7.15 0.004,-17.5 0.0375,-23 0.0336,-5.5 -0.0353,-14.95 -0.15304,-21 -0.1178,-6.05 -0.19884,-16.7375 -0.18009,-23.75 0.0188,-7.0125 -0.0324,-17.1375 -0.11368,-22.5 -0.0813,-5.3625 0.23241,-13.166487 0.69707,-17.342194 1.0009,-8.994826 -0.004,-20.533397 -1.84976,-21.241723 -0.70712,-0.271349 -2.27418,0.03028 -3.48235,0.670278 -2.08615,1.105088 -2.21879,1.943551 -2.63613,16.663639 -0.57657,20.33634 -0.49276,27.438852 0.40172,34.043496 0.40644,3.001077 0.32134,10.181504 -0.18911,15.956504 -1.24628,14.1 -1.25893,19.78612 -0.0686,30.87282 0.55345,5.15505 0.67299,12.13005 0.26564,15.5 -1.03104,8.52972 -1.09357,15.02037 -0.29504,30.62718 0.45013,8.79761 0.28261,16.09963 -0.48093,20.96322 -0.88178,5.61677 -0.89336,9.82269 -0.0468,17 1.57058,13.31563 1.64597,13.5821 4.18769,14.80268 3.6054,1.73138 4.28694,0.91266 4.04226,-4.85584 z M 174.5,221.37828 c 19.44362,-5.41972 34.44422,-18.26715 44.30364,-37.94435 8.69122,-17.34572 8.19725,-42.56769 -1.19911,-61.22636 C 199.88796,87.027165 155.2753,73.393441 120.75655,92.610621 111.33879,97.853654 107,101.6265 107,104.5728 c 0,3.27183 1.51965,3.05642 6.39701,-0.90675 5.62775,-4.572923 11.84153,-8.07115 20.11349,-11.323477 6.45579,-2.53825 8.09671,-2.751699 21.4895,-2.795333 14.1862,-0.04622 14.67313,0.02441 22.5,3.263656 25.96201,10.744694 40.72585,30.953874 42.21202,57.781044 0.93438,16.86674 -3.31739,30.24967 -14.03569,44.1789 -8.44179,10.97075 -24.22098,20.67741 -37.79934,23.25249 -7.63226,1.44743 -21.6359,1.18464 -28.41689,-0.53327 -13.91483,-3.5252 -28.69048,-13.37493 -37.28294,-24.85351 -1.33936,-1.78924 -2.712517,-2.64509 -3.66032,-2.28139 -3.355019,1.28745 -1.408929,4.91491 7.31945,13.6433 8.96705,8.96704 10.33232,9.73856 20.19223,11.41067 1.94068,0.32912 5.93563,2.18367 8.87767,4.12123 9.16053,6.03293 22.36832,6.64936 39.59381,1.84792 z m 66.79258,2.70058 c 4.72862,-1.79782 16.31573,-22.23395 20.80627,-36.69593 5.92967,-19.09674 6.3377,-44.34545 1.03237,-63.88293 C 259.06542,108.52723 248.95194,90.642884 237.66495,78.466284 224.7075,64.487563 209.18699,54.245264 191.62118,48.081066 163.96229,38.375004 131.50877,40.327814 105.5,53.263193 c -6.810132,3.386999 -21.599483,13.084266 -23.999587,15.73635 -1.46172,1.615183 -1.455995,1.902018 0.06839,3.426402 1.389455,1.389455 1.950349,1.450248 3.403119,0.368855 0.956706,-0.71214 3.941904,-2.974071 6.633772,-5.026514 5.978721,-4.558537 17.976106,-10.937888 27.103916,-14.411926 20.304,-7.727678 44.2836,-8.334955 67.21147,-1.702112 26.14589,7.563789 51.44202,28.394737 63.588,52.363672 12.48233,24.63269 15.62326,51.12286 9.06745,76.47357 -3.64881,14.10962 -14.26155,35.29353 -20.5179,40.95545 -3.62269,3.27849 -1.98093,4.61462 3.23395,2.63192 z m 38.91197,-5.66971 C 280.04205,215.70912 279.88112,206.975 279.84692,199 l -0.0622,-14.5 -3.92719,11 c -3.40268,9.53084 -3.84587,11.73458 -3.31825,16.5 0.9245,8.35002 1.52882,10.08355 3.83913,11.01278 3.45705,1.39046 4.1376,0.57163 3.82613,-4.60363 z m -183.762778,2.25709 c 1.71795,-1.2562 1.62729,-1.53245 -1.55887,-4.75 -1.860596,-1.87893 -4.822187,-5.17811 -6.581314,-7.3315 -2.72131,-3.33122 -3.42986,-3.72317 -4.75,-2.62755 C 82.698215,206.66542 82,207.7881 82,208.45203 82,209.7789 92.72801,222 93.892774,222 c 0.398732,0 1.545781,-0.60019 2.548998,-1.33376 z m 162.412568,-1.68309 c 3.47348,-4.69814 9.63351,-17.67396 12.565,-26.46762 5.65431,-16.96135 7.49128,-39.89971 4.64604,-58.01553 C 268.12211,83.924632 227.33848,42.337825 176.90117,33.382881 153.64864,29.254488 126.98205,32.287765 105.5,41.504633 93.466807,46.667472 71.650881,61.948655 72.205083,64.826392 c 0.549899,2.855395 3.51679,2.417698 7.475642,-1.102861 16.398799,-14.583252 42.045065,-24.884252 66.450435,-26.690277 35.15375,-2.601417 67.82374,9.666288 92.12511,34.59333 13.55736,13.906416 22.28193,27.715261 27.77143,43.955356 10.94176,32.37002 7.41749,68.46381 -9.53352,97.63739 -2.4718,4.25409 -4.49418,7.97006 -4.49418,8.2577 0,0.28763 1.04037,0.52297 2.31194,0.52297 1.41214,0 3.18003,-1.17415 4.5424,-3.01685 z M 268,219.91667 c 0,-2.43705 -2.33677,-2.09257 -2.82332,0.4162 -0.19138,0.98676 0.31876,1.66713 1.25,1.66713 0.92763,0 1.57332,-0.855 1.57332,-2.08333 z m -160.52426,-4.87742 c 0.80905,-1.30907 -15.128036,-17.37218 -16.434678,-16.56463 -2.240523,1.38472 -0.791347,4.50865 5.04753,10.88076 5.872868,6.4092 9.744508,8.34172 11.387148,5.68387 z m 61.06416,-2.5778 c 39.7254,-10.25479 58.37934,-54.03036 37.95982,-89.08102 -3.61706,-6.20878 -14.58937,-17.21548 -20.72324,-20.78819 -18.4233,-10.730777 -40.40244,-11.259712 -58.87549,-1.41686 -8.96943,4.77911 -17.33276,12.53586 -16.33097,15.1465 0.87408,2.27782 2.73506,2.10922 5.02499,-0.45526 3.52644,-3.94924 12.59368,-10.0834 18.38057,-12.43483 20.78503,-8.445712 43.48266,-3.833382 59.47474,12.08571 27.04444,26.92102 19.42457,71.53069 -14.95032,87.52497 -10.86984,5.05762 -17.07207,6.35885 -26.90715,5.64512 -17.43876,-1.26552 -33.56721,-10.62235 -42.61576,-24.72329 -2.57685,-4.01568 -3.48996,-4.78355 -4.59638,-3.8653 -0.75939,0.63024 -1.38071,1.77473 -1.38071,2.54332 0,2.6184 4.69733,8.84591 11.4051,15.12036 8.73059,8.1666 18.16381,12.89575 31.0949,15.5888 4.85162,1.0104 17.58317,0.51858 23.0399,-0.89003 z m 1.42869,-11.43955 c 3.55772,-1.14308 7.60772,-2.80013 9,-3.68234 17.02651,-10.78877 24.96746,-24.42865 25.01032,-42.95929 0.0359,-15.52956 -4.64919,-26.23046 -16.14351,-36.87218 C 177.96803,108.37265 169.09384,105 154.92383,105 c -14.65032,0 -24.86526,4.22508 -35.67383,14.75534 -4.63345,4.51414 -5.25,5.59219 -5.25,9.17974 0,2.2357 0.45416,4.06492 1.00924,4.06492 0.55509,0 2.39896,-2.25857 4.0975,-5.01904 3.85703,-6.26849 13.10548,-13.02268 21.89326,-15.98877 5.37005,-1.81252 8.17097,-2.12773 16.11218,-1.81324 8.66144,0.34302 10.35029,0.74547 17.07464,4.06882 9.2531,4.57313 16.67675,12.1311 21.11173,21.4937 3.02696,6.39018 3.20145,7.38794 3.20145,18.30695 0,11.33944 -0.0682,11.6865 -3.76981,19.17956 -4.83357,9.78447 -13.59528,18.12501 -22.87144,21.77202 -5.44949,2.14252 -7.93168,2.49458 -17.35875,2.46207 -13.57953,-0.0468 -19.41623,-2.06939 -27.96829,-9.69171 -5.94226,-5.29625 -13.51885,-15.74104 -13.54702,-18.6754 -0.008,-0.87723 -0.45842,-2.26996 -1,-3.09496 -0.87528,-1.33333 -1.0941,-1.33333 -1.96938,0 -4.23879,6.45706 6.75198,23.22093 20.17446,30.77145 13.07178,7.35324 25.86655,8.72039 39.77882,4.25045 z m 1.0397,-11.51322 c 7.70374,-3.88572 12.13876,-7.61767 16.31821,-13.73135 6.68226,-9.77478 8.35207,-22.62204 4.47524,-34.43168 -2.92696,-8.91616 -11.15172,-17.91646 -20.63806,-22.58413 -6.12566,-3.01407 -7.35068,-3.25622 -16.14613,-3.19167 -12.59538,0.0924 -18.75081,2.44588 -26.75116,10.22795 -7.50724,7.30242 -11.25815,15.05402 -11.99427,24.78722 -0.96113,12.70836 2.48717,22.31529 11.08729,30.88909 8.68477,8.65819 16.57761,11.62007 29.64888,11.12609 6.89771,-0.26067 9.54784,-0.84588 14,-3.09152 z m -26.64077,-3.36794 c -29.22744,-10.87056 -31.5112,-49.15975 -3.74247,-62.74572 27.92784,-13.66382 57.99773,16.51518 44.9419,45.10498 -6.78092,14.84894 -26.2696,23.19359 -41.19943,17.64074 z m 23.22729,-6.72892 c 9.3265,-4.41214 15.54872,-14.08615 15.67541,-24.3714 0.0904,-7.33746 -1.54742,-12.53563 -5.74284,-18.22698 -13.913,-18.87385 -44.24777,-12.8991 -50.20907,9.8892 -1.76046,6.72972 -1.24881,12.40223 1.7262,19.13798 6.55146,14.8332 23.36837,20.75341 38.5503,13.5712 z m -19.88753,-2.98584 c -5.54849,-1.74975 -12.12662,-7.79201 -14.39591,-13.2232 -3.81024,-9.11919 -0.83832,-21.24132 6.66446,-27.18363 4.5227,-3.58205 13.17343,-6.17882 18.00823,-5.40571 6.47893,1.03602 13.1565,5.41498 16.48159,10.80814 2.72519,4.42013 3.03435,5.74796 3.03435,13.03226 0,7.67941 -0.18611,8.36842 -3.5,12.95787 -6.06844,8.40424 -16.68511,12.04409 -26.29272,9.01427 z m 14.59046,-5.77702 c 10.40254,-4.34646 14.02463,-18.70648 6.94073,-27.51702 -8.46797,-10.53194 -24.61358,-8.97617 -30.78955,2.96684 -1.70218,3.29166 -1.89498,10.59041 -0.3853,14.58612 1.40532,3.7195 5.70967,8.23429 9.43638,9.89774 3.89978,1.7407 10.71726,1.77125 14.79774,0.0663 z m -13.26772,-4.92827 c -6.33416,-3.20512 -8.82684,-12.26154 -5.0705,-18.42214 8.37295,-13.73211 29.3762,-2.34501 22.47997,12.18772 -3.1001,6.53297 -11.13388,9.40991 -17.40947,6.23442 z m 11.0469,-6.64377 c 3.50698,-3.50697 3.68797,-6.08014 0.67308,-9.56948 -5.4002,-6.25003 -15.36188,-1.0658 -13.35057,6.94787 0.64941,2.58747 4.7503,5.43502 7.92749,5.50465 1.00481,0.022 3.14231,-1.27534 4.75,-2.88304 z M 153,154 c 0,-1.33333 0.66667,-2 2,-2 1.33333,0 2,0.66667 2,2 0,1.33333 -0.66667,2 -2,2 -1.33333,0 -2,-0.66667 -2,-2 z M 280.11099,88 C 279.65193,61.958308 279.67602,59.424182 280.47316,49.894111 281.51911,37.389554 280.75016,33 277.5137,33 c -1.31761,0 -2.72447,0.53202 -3.12635,1.182267 -1.39976,2.264861 -1.95315,30.3123 -1.15065,58.317733 0.3397,11.85478 0.76951,14.91938 2.80499,20 l 2.40382,6 0.95173,-8.5 c 0.52345,-4.675 0.84464,-14.575 0.71375,-22 z m 37.04498,2.748212 c 2.62344,-4.196194 2.6428,-4.360741 1.58114,-13.438218 -0.80769,-6.906042 -0.75948,-12.373635 0.194,-22 0.95063,-9.597683 0.99487,-14.439973 0.1764,-19.309994 -0.60082,-3.575 -1.0958,-9.7625 -1.09996,-13.75 -0.009,-8.189988 -0.89193,-8.940032 -5.49982,-4.669581 -2.72931,2.529438 -2.76795,2.722066 -1.95551,9.75 0.86586,7.490081 1.00479,20.229994 0.40532,37.169581 -0.45315,12.805153 0.96133,30.500602 2.43787,30.498212 0.60753,-9.84e-4 2.29977,-1.913484 3.76056,-4.25 z M 267.47236,82.25 c -0.98482,-10.448834 -0.9767,-17.667932 0.0382,-33.959652 l 0.76062,-12.209652 -2.66273,-1.213222 c -1.84034,-0.838514 -2.98336,-0.892596 -3.70085,-0.175104 -1.11485,1.114847 -2.12489,15.980917 -2.29965,33.846766 -0.1067,10.908316 -0.067,11.106811 3.35331,16.75 C 264.865,88.430111 266.84433,91 267.35982,91 c 0.57442,0 0.61798,-3.3873 0.11254,-8.75 z m -13.36985,-18.5 c 0.12514,-3.4375 0.26576,-11.391686 0.3125,-17.675969 l 0.085,-11.425969 -2.63198,-0.705985 c -1.4476,-0.388292 -3.03436,-0.421606 -3.52615,-0.07403 -0.49179,0.347574 -0.88239,4.681954 -0.86801,9.631954 0.0144,4.95 -0.3358,11.523931 -0.77817,14.608735 -0.74518,5.196469 -0.61002,5.839632 1.8389,8.75 4.06847,4.835101 5.30386,4.145346 5.56792,-3.108735 z M 62.166213,51.531581 c 0.319318,-5.7097 0.210318,-6.02838 -2.514527,-7.351686 -1.566572,-0.760797 -3.211011,-1.000009 -3.654308,-0.531581 -0.443297,0.468427 -0.961556,3.759822 -1.151686,7.314211 -0.323738,6.0521 -0.18703,6.54213 2.152595,7.715998 3.548425,1.780363 4.762565,0.101278 5.167926,-7.146942 z m 10.22416,4.582845 c 3.89846,-4.069116 3.402403,-8.488514 -1.000937,-8.917385 -2.898508,-0.282305 -3.153405,-0.0437 -3.738994,3.5 -1.478783,8.948878 -0.125398,10.495694 4.739931,5.417385 z M 242.25561,51.918177 C 243.25071,44.782739 242.22838,34.37124 240.348,32.490855 239.52803,31.670885 237.81839,31 236.54881,31 c -2.30401,0 -2.3074,0.02108 -1.80739,11.25 0.42547,9.554911 0.81302,11.591913 2.57213,13.519212 2.94273,3.224101 4.07883,2.33881 4.94206,-3.851035 z M 49.427019,48.597016 c 0.925448,-6.891284 0.922059,-6.906953 -2,-9.245033 C 42.512676,35.419781 42,36.039929 42,45.916667 c 0,9.263091 0.413092,10.160225 4.5,9.772885 1.686537,-0.159843 2.145293,-1.271466 2.927019,-7.092536 z M 23.419235,44.5 C 23.273614,28.272896 21.792516,13.739168 19.81019,9.0851329 18.655143,6.3733558 17.572098,5.0279024 17.002644,5.597356 c -2.097403,2.0974029 -2.930951,17.902673 -1.452583,27.54305 0.840014,5.477695 1.174181,11.772833 0.805705,15.178122 l -0.629605,5.818528 3.88692,-0.318528 L 23.5,53.5 Z m 13.168348,5.884835 C 37.825049,43.788571 36.208906,32.908952 33.386606,28.836372 30.8368,25.157001 28.427187,23.456732 27.657315,24.793674 27.433611,25.182153 27.611348,27.975 28.052287,31 c 0.440939,3.025 0.834558,9.1375 0.87471,13.583333 0.04015,4.445834 0.373003,8.383334 0.73967,8.75 C 30.033333,53.7 31.587942,54 33.121354,54 c 2.411492,0 2.879614,-0.488236 3.466229,-3.615165 z M 230,44.272896 c 0,-1.984989 -0.49855,-6.471984 -1.1079,-9.9711 -0.9667,-5.551183 -1.49114,-6.560214 -4.1149,-7.917011 -1.65385,-0.85524 -3.35125,-1.179187 -3.77198,-0.719883 -0.54876,0.599051 1.08745,17.710259 1.91752,20.053161 0.2653,0.748802 5.70586,3.011472 6.32339,2.629823 C 229.66076,48.09163 230,46.257884 230,44.272896 Z m -13.77215,-5.880525 c -0.14969,-1.040804 -0.55258,-5.395793 -0.89532,-9.677752 -0.57171,-7.142502 -0.86525,-7.957764 -3.55489,-9.872955 -4.54288,-3.234813 -5.29936,-1.579255 -4.03664,8.834111 0.94586,7.800257 1.37233,9.003713 3.91032,11.034381 3.2307,2.584912 4.97655,2.463684 4.57653,-0.317785 z M 202.30638,22.391118 C 202.15019,13.02615 201.78194,10.416532 200.40139,8.8910384 196.37995,4.4473929 195.0302,8.0304332 195.01101,23.20031 c -0.0117,9.23408 0.73388,10.696873 5.48899,10.769361 1.89782,0.02893 1.99011,-0.562609 1.80638,-11.578553 z M 136.8,26.8 c 0.69551,-0.695511 1.18869,-3.953668 1.1731,-7.75 l -0.0269,-6.55 -2.93306,3.5 c -3.58075,4.272891 -5.43769,8.451255 -4.65841,10.48204 0.69467,1.810271 4.75276,2.010466 6.44527,0.31796 z M 26.156298,356.12734 c -2.410989,-8.04716 -2.548518,-18.14783 -0.362909,-26.6534 4.806027,-18.70325 16.699143,-32.05153 34.926543,-39.19993 5.99075,-2.34945 8.118869,-2.65253 18.280068,-2.60339 17.554787,0.0849 28.50206,4.79309 40.34759,17.35264 10.54882,11.18469 15.28528,24.38383 14.34547,39.97674 -0.66957,11.10938 -2.07214,15 -5.40752,15 -2.14205,0 -2.41954,-0.33654 -1.85518,-2.25 10.48161,-35.53768 -18.07392,-69.80046 -54.008126,-64.80247 -18.573066,2.58328 -33.717974,15.01028 -40.006217,32.82671 -3.303352,9.35936 -3.268347,24.37304 0.07572,32.47576 0.591949,1.4343 0.190299,1.75 -2.226461,1.75 -2.557586,0 -3.102599,-0.51367 -4.108978,-3.87266 z m 11.282133,0.7536 c -0.964984,-1.86607 -1.833769,-6.82063 -2.162663,-12.33337 -0.46332,-7.7659 -0.208403,-10.24 1.621712,-15.7395 4.143956,-12.45259 12.127129,-21.58488 23.535853,-26.92367 10.885893,-5.09412 20.566202,-5.74854 32.066667,-2.16781 12.27081,3.82058 23.1544,14.06729 27.78761,26.16153 3.46368,9.04137 3.987,20.76832 1.28924,28.8905 -1.5574,4.68891 -2.03504,5.23138 -4.60619,5.23138 h -2.86861 l 1.64751,-3.75 c 1.17261,-2.66907 1.66234,-6.77662 1.69897,-14.25 0.046,-9.38199 -0.23634,-11.11419 -2.65156,-16.26825 -3.47808,-7.4222 -11.66883,-15.57832 -19.29697,-19.21538 -8.520984,-4.06277 -20.043755,-4.67994 -28.667722,-1.53549 -13.072751,4.76657 -22.113052,14.32099 -25.365519,26.80805 -1.993312,7.65284 -1.842842,13.83313 0.52034,21.37198 1.092904,3.4865 1.992904,6.45159 2,6.58909 0.0071,0.1375 -1.100543,0.25 -2.461419,0.25 -1.75882,0 -2.940731,-0.90194 -4.087249,-3.11906 z M 48.3969,356.40749 c -5.774285,-13.81981 -3.142349,-28.83394 6.734814,-38.4194 2.22693,-2.16117 6.595811,-5.1801 9.708625,-6.70874 7.918002,-3.88838 20.001374,-3.95823 28.159661,-0.16279 7.82476,3.64028 13.30568,8.97574 16.64459,16.20285 3.87174,8.38045 4.09861,20.65614 0.5162,27.93059 -1.9866,4.034 -2.77554,4.75 -5.23395,4.75 h -2.89474 l 2.00431,-3.84535 c 7.45724,-14.30703 2.97907,-30.85614 -10.452767,-38.62826 -9.650478,-5.58411 -19.60237,-5.65955 -28.709189,-0.21763 -7.047866,4.21156 -12.565107,12.13495 -13.818991,19.84566 -1.032664,6.35032 0.442216,14.86263 3.276209,18.90872 2.32741,3.32284 2.111756,3.93686 -1.382699,3.93686 -2.556634,0 -3.294258,-0.58213 -4.552073,-3.59251 z M 61.918659,357.75 c -6.322578,-6.5883 -7.71499,-17.75255 -3.315278,-26.58162 2.990759,-6.00167 6.875813,-9.28586 13.681566,-11.56557 5.947361,-1.99218 8.319388,-2.00651 13.770656,-0.0832 8.753474,3.0884 15.016307,10.40462 16.430037,19.19353 0.85993,5.34603 -1.56548,14.03985 -5.083136,18.22035 -2.286534,2.71739 -3.167865,3.0585 -7.741398,2.99621 -2.838608,-0.0387 -4.456232,-0.37615 -3.59472,-0.75 6.435999,-2.79282 10.935504,-10.05516 10.929876,-17.64115 -0.01224,-16.49346 -20.663748,-23.7928 -31.712561,-11.2089 -7.514648,8.55871 -4.792678,22.18332 5.519971,27.62979 L 74.5,359.9116 l -5.211045,0.0442 c -4.133604,0.0351 -5.657494,-0.42101 -7.370296,-2.2058 z m 140.909261,-1.65665 c -12.41725,-14.57663 -19.5749,-37.9433 -17.06319,-55.70408 2.74275,-19.3946 9.16148,-32.36054 22.71727,-45.88927 15.33579,-15.30518 31.23353,-21.91537 52.518,-21.83669 21.81251,0.0806 39.34194,7.39529 54.20855,22.62006 26.36122,26.99629 29.04301,68.52976 6.35794,98.46663 -4.18448,5.52215 -5.13374,6.25 -8.15125,6.25 C 311.53686,360 310,359.73462 310,359.41026 c 0,-0.32436 2.25467,-3.11943 5.01039,-6.21127 C 326.729,340.051 333.41174,318.6791 331.23177,301.32181 328.93862,283.06341 323.35885,271.37909 311,258.95542 c -13.90346,-13.97638 -26.91929,-19.75626 -46.5,-20.64906 -13.79481,-0.62899 -23.00816,1.16837 -34,6.63279 -36.02881,17.91115 -49.81838,59.83908 -31.54504,95.91434 2.13027,4.20558 6.19787,10.23401 9.03912,13.39651 l 5.16589,5.75 h -3.50206 c -2.83722,0 -4.13385,-0.74165 -6.82999,-3.90665 z m 11.63667,-2.44039 c -7.33728,-7.80775 -12.81561,-16.93018 -15.70574,-26.15296 -3.29549,-10.51635 -3.06947,-30.17153 0.45998,-40 5.08358,-14.15631 14.4886,-26.16095 26.50728,-33.83415 12.08736,-7.71704 21.67627,-10.60245 35.36393,-10.6414 36.2888,-0.10328 65.28045,29.02062 65.22152,65.51902 -0.0281,17.43092 -7.63645,35.09272 -20.12011,46.70653 -4.61653,4.29485 -5.56472,4.75 -9.89541,4.75 h -4.78965 l 4.61477,-3.28098 c 23.62772,-16.79869 31.61392,-48.79501 18.75944,-75.1588 -15.55427,-31.90091 -56.82571,-43.19936 -86.15178,-23.58489 -13.82194,9.24467 -22.01426,20.74442 -25.68406,36.05326 -2.40153,10.01813 -2.5427,16.9343 -0.54036,26.47141 2.85325,13.58999 11.00171,26.32037 22.83344,35.67281 L 230.1796,360 h -4.87521 c -4.69505,0 -5.09563,-0.23456 -10.8398,-6.34704 z m 22.1414,3.33281 C 218.01857,347.55998 206.62024,328.97072 206.56948,308 206.51035,283.57252 221.53298,263.53969 246,255.41898 c 7.35579,-2.44142 22.29361,-2.45751 30.5,-0.0329 13.11997,3.8764 26.779,15.07861 33.15503,27.1915 8.31568,15.79772 8.21428,36.81129 -0.25018,51.84878 -4.67603,8.3072 -14.7245,18.0949 -22.64502,22.05737 L 279.73129,360 261.11564,359.98733 242.5,359.97467 Z m 32.96035,-0.0615 c 20.77777,-3.76677 37.45502,-20.92522 40.69719,-41.87145 3.59796,-23.24477 -11.6794,-47.26175 -34.46618,-54.18302 -5.85854,-1.77948 -8.63525,-2.0384 -17.14407,-1.59866 -10.99412,0.56819 -15.91338,2.056 -24.15328,7.30507 -14.44643,9.20282 -22.5,24.25786 -22.5,42.06064 0,22.92694 15.54155,42.28642 38.5,47.95787 6.40766,1.58289 11.65271,1.67355 19.06634,0.32955 z m -17.93226,-5.51076 c -13.49569,-3.2666 -25.07628,-12.69267 -30.9304,-25.17593 -2.97245,-6.33842 -3.15966,-7.41896 -3.15966,-18.23761 0,-10.83357 0.18426,-11.893 3.17962,-18.28162 4.17776,-8.91054 12.48973,-17.23523 21.75533,-21.78867 6.72313,-3.30398 7.40133,-3.42971 18.5,-3.42971 10.91121,0 11.8823,0.17111 18.34631,3.23269 8.38704,3.97239 17.98168,13.33884 21.96081,21.43849 12.84231,26.141 -4.07453,58.01982 -33.30549,62.76229 -7.95605,1.2908 -9.00325,1.25749 -16.34652,-0.51993 z m 25.45306,-7.61283 c 7.96738,-3.67251 14.99267,-10.51184 18.99842,-18.49553 C 299.32262,318.85354 299.5,317.95451 299.5,308 c 0,-9.85926 -0.19427,-10.87162 -3.18356,-16.58986 -4.40162,-8.41992 -11.01339,-14.90017 -19.09167,-18.71194 -5.9889,-2.82589 -7.70961,-3.17448 -15.72477,-3.18565 -13.77279,-0.0192 -23.53373,4.76266 -31.57969,15.47084 -15.85399,21.09966 -5.82603,52.18407 19.55294,60.60971 6.56432,2.1793 21.0352,1.24002 27.61389,-1.79239 z M 251.5,340.66637 c -9.56545,-3.18106 -16.72704,-9.56947 -20.91786,-18.65951 -3.34712,-7.26006 -4.0324,-12.51495 -2.56088,-19.63759 3.10802,-15.04381 13.24321,-25.04914 27.92448,-27.5667 11.43055,-1.96012 20.90385,1.2408 29.20088,9.86666 6.50902,6.76698 9.07273,12.34836 9.63646,20.97928 0.60245,9.22363 -1.57242,16.30479 -7.21634,23.49573 -6.10926,7.78383 -14.22213,11.9257 -24.39408,12.45392 -4.76645,0.24752 -9.18776,-0.10542 -11.67266,-0.93179 z m 22.04448,-6.6879 c 10.21981,-4.94733 15.75761,-14.04559 15.8122,-25.97847 0.0421,-9.20058 -2.99966,-15.9347 -9.66437,-21.39593 -19.12501,-15.67151 -47.19862,-2.61586 -46.8877,21.80516 0.16064,12.61771 7.02925,22.08437 19.33782,26.65237 6.48723,2.40757 15.09067,1.97216 21.40205,-1.08313 z m -18.68715,-3.32841 c -12.81877,-4.71759 -18.9727,-15.56063 -16.4533,-28.99021 0.83638,-4.45826 7.87662,-12.42812 13.05726,-14.78138 4.84948,-2.20283 14.23161,-2.45145 18.90009,-0.50084 9.96146,4.16217 16.02888,15.83217 13.68252,26.31679 -2.93137,13.09878 -17.69846,22.18351 -29.18657,17.95564 z m 14.93251,-6.55007 c 5.9556,-3.04991 8.60434,-7.49969 8.98828,-15.09999 0.25926,-5.13214 -0.0858,-7.15956 -1.63974,-9.63417 -11.16261,-17.77626 -37.57755,-7.5117 -33.71083,13.09967 0.79433,4.23412 5.811,10.2922 10.05386,12.14093 4.43902,1.93421 12.00111,1.69938 16.30843,-0.50644 z m -16.64636,-5.63272 c -6.21012,-5.22547 -6.52657,-13.76515 -0.71869,-19.39437 4.64911,-4.5061 10.63295,-5.22951 15.56064,-1.88119 4.36994,2.96933 5.98102,6.10458 5.99983,11.67594 0.0127,3.74972 -0.53452,4.91691 -3.86761,8.25 -3.48292,3.48291 -4.40099,3.88235 -8.92328,3.88235 -3.9354,0 -5.70104,-0.55545 -8.05089,-2.53273 z m 13.44693,-4.54231 c 3.92064,-3.25384 2.0134,-10.98449 -3.19891,-12.96621 -3.22121,-1.2247 -8.10483,1.15706 -9.40971,4.58915 -2.66845,7.01855 6.72537,13.25973 12.60862,8.37706 z M 260.25,310.29677 C 258.18381,309.53073 258.7516,306 260.94098,306 c 1.06754,0 2.24579,0.49318 2.61833,1.09596 0.85932,1.39042 -1.6489,3.8164 -3.30931,3.20081 z M 73.108124,353.28361 C 68.995754,351.25785 65.492599,344.287 66.373495,339.88253 67.719437,333.15281 73.103513,329 80.482567,329 c 5.362576,0 10.553538,5.1407 11.227337,11.11864 0.637117,5.65248 -1.369208,9.88965 -6.053694,12.78482 -4.070266,2.51556 -7.973104,2.6338 -12.548086,0.38015 z m 8.604817,-4.33339 c 5.086146,-1.77304 6.799559,-7.94962 3.259382,-11.74955 -2.878953,-3.0902 -6.47815,-3.75448 -9.525145,-1.75802 -3.785337,2.48025 -4.955632,5.72444 -3.306059,9.16476 1.023633,2.13487 4.59055,5.10443 6.459658,5.37785 0.05543,0.008 1.455901,-0.45766 3.112164,-1.03504 z m -4.011705,-5.58232 c -1.574709,-1.57471 -0.640042,-3.49831 1.548764,-3.18745 1.2375,0.17575 2.25,0.98839 2.25,1.80585 0,1.58876 -2.633732,2.54663 -3.798764,1.3816 z M 15.690674,215.02554 c -2.64513,-0.4822 -7.2576299,-1.6468 -10.2500004,-2.58802 C 0.45843715,210.87042 0,210.47596 0,207.75612 c 0,-2.44679 0.30833559,-2.83838 1.75,-2.22252 8.696895,3.71523 24.760968,5.8082 34.316008,4.47101 30.280059,-4.23758 54.401648,-26.13565 60.505077,-54.92772 C 104.45078,117.90554 81.850927,81.297001 45.244151,71.934565 32.283369,68.619755 12.462206,69.765583 1.75,74.448889 0.30238959,75.081775 0,74.696038 0,72.216539 0,69.320344 0.26177081,69.15004 7.75,67.174501 c 11.808706,-3.115364 21.23562,-3.62857 32.127077,-1.749013 34.118808,5.88794 58.779926,31.871759 63.237373,66.629122 2.75279,21.4651 -5.319575,44.61934 -21.134309,60.62023 -9.796708,9.91203 -22.461423,17.44416 -35.211803,20.94163 -6.476661,1.77657 -24.563195,2.59662 -31.077664,1.40907 z M 349.47909,205.35282 C 334.01257,196.3448 321.02506,179.83067 315.30365,161.89739 313.00166,154.682 312.61974,151.74052 312.59034,141 c -0.0582,-21.25902 5.61451,-36.46856 19.44091,-52.124593 5.27393,-5.971821 16.91017,-14.576382 23.34087,-17.2597 4.94211,-2.062174 4.81704,-2.092027 4.4443,1.06078 -0.23448,1.983353 -1.41957,3.258002 -4.57614,4.921966 -30.38364,16.016508 -45.04442,52.307587 -34.17582,84.598297 5.24933,15.59583 17.32495,30.51331 31.16027,38.49352 6.31241,3.64099 7.77527,4.93866 7.77527,6.89725 0,3.36866 -1.41678,3.06773 -10.52091,-2.2347 z M 12.5,203.57591 C 3.3833021,201.28945 0,199.38807 0,196.55103 0,193.63936 0.96419423,193.413 4.836694,195.41555 8.8286312,197.47986 22.000441,200 28.797879,200 c 25.314724,0 49.249659,-18.44693 56.910883,-43.86187 2.619073,-8.68837 2.343192,-24.75989 -0.576906,-33.60779 C 78.788317,103.30939 65.690526,89.910303 46.732632,83.247777 40.656192,81.112285 37.661636,80.69714 28,80.650809 18.000634,80.602858 15.485956,80.948268 8.7289462,83.297831 4.4548666,84.784024 0.7423666,86 0.47894619,86 0.21552579,86 0,84.715553 0,83.145673 c 0,-2.687489 0.45299294,-2.994355 7.75,-5.25 10.985897,-3.395951 30.628991,-3.415799 40.25,-0.04067 16.339214,5.73193 30.631705,17.993748 37.746171,32.383207 18.908989,38.24462 -1.258509,82.57443 -42.390516,93.17784 C 36.021843,205.30663 19.737223,205.391 12.5,203.57591 Z m 342.5,-7.2412 c -26.12961,-15.36634 -38.73467,-48.14566 -29.32583,-76.26148 4.79348,-14.32405 17.29334,-29.914171 29.16952,-36.380916 L 360,80.884629 V 83.7739 c 0,2.364211 -0.89869,3.471605 -4.94529,6.093708 -16.45294,10.661142 -25.76436,27.206242 -26.80509,47.628922 -0.41741,8.19106 -0.12841,11.39301 1.59514,17.67292 4.2138,15.35332 13.89652,28.43522 26.58998,35.92455 2.78439,1.64283 3.56526,2.73899 3.56526,5.00478 0,1.59567 -0.1125,2.89696 -0.25,2.89176 -0.1375,-0.005 -2.275,-1.20033 -4.75,-2.65583 z M 15.727271,193.5021 C 12.55227,192.69577 7.7147699,191.07252 4.9772709,189.89488 0.4270912,187.93744 0,187.46684 0,184.41058 v -3.34313 l 3.3173935,1.95731 c 10.9702155,6.47259 27.2269175,8.20795 39.4696265,4.2133 13.733368,-4.48104 25.543516,-15.36597 30.931467,-28.50827 3.801396,-9.27237 4.365933,-24.31059 1.258994,-33.53725 C 70.363097,111.48923 62.24203,102.19888 49.250423,95.76129 41.388012,91.865312 40.074583,91.533522 31.084968,91.172451 20.172187,90.734136 11.439698,92.465437 4.2252968,96.497643 l -4.34656825,2.429344 0.31063572,-3.164862 C 0.58197329,91.762091 3.8876581,89.733365 14.594216,86.92175 c 12.617853,-3.313534 28.794549,-1.223092 39.935342,5.160666 19.64265,11.255384 31.189481,35.003314 27.598485,56.760754 -1.288801,7.80869 -7.631901,21.04143 -13.109603,27.34876 -5.103628,5.8766 -16.067466,13.23426 -23.696938,15.90264 -7.70581,2.69508 -21.87154,3.36881 -29.594231,1.40753 z m 339.772309,-9.24536 c -26.91944,-19.56631 -30.06007,-58.84914 -6.58353,-82.34654 3.62117,-3.624389 7.59645,-7.127722 8.83395,-7.785183 2.0862,-1.108361 2.25,-0.988274 2.25,1.649559 0,2.198903 -1.45347,4.221447 -6.40058,8.906604 -20.38784,19.3083 -20.32006,51.40404 0.14981,70.93417 5.26633,5.02456 6.35084,6.59995 6.08019,8.83221 L 359.5,187.16443 Z M 11.153446,181.08776 C 1.9144181,177.37464 0,175.67575 0,171.19002 c 0,-3.259 0.12049662,-3.39293 1.75,-1.9451 0.9625,0.85519 4.0175477,2.88227 6.7889949,4.50463 11.3494411,6.64375 24.6143821,6.94993 36.9508881,0.8529 8.631324,-4.26583 13.350765,-9.17476 17.884378,-18.60245 2.835946,-5.89737 3.12306,-7.38076 3.096844,-16 -0.02597,-8.53882 -0.343651,-10.15765 -3.139838,-16 C 52.64785,101.67808 25.341382,94.186092 5.4507672,108.11951 l -5.57288882,3.90382 0.31106081,-3.76166 C 0.4881525,104.64327 0.80469934,104.34765 8.5,100.5 c 7.944568,-3.972284 8.079829,-4 19.521027,-4 11.098673,0 11.776874,0.125731 18.5,3.429707 9.233113,4.537473 17.525482,12.834153 21.757359,21.768683 C 71.326148,128.13296 71.5,129.12059 71.5,140 c 0,10.87941 -0.173852,11.86704 -3.221614,18.30161 -4.228422,8.92724 -12.525102,17.23164 -21.739797,21.76004 -6.397668,3.14402 -7.81484,3.44364 -17.5,3.69986 -9.696075,0.25651 -11.125914,0.0428 -17.885143,-2.67375 z m 4.739011,-9.44196 C 4.2928855,166.87417 0,162.06997 0,153.86044 v -5.33082 l 2.0982935,3.98519 C 7.4740972,162.72482 16.284282,168.22343 27.5,168.36851 c 8.737652,0.11302 14.636822,-2.37467 20.891067,-8.80982 6.045783,-6.22065 7.940151,-11.51071 7.429585,-20.74727 C 55.348339,130.2669 53.366121,125.60141 47.875214,120.11051 33.897595,106.13289 11.435458,109.75155 2.0982935,127.48519 L 0,131.47038 v -5.61461 c 0,-5.21838 0.28896205,-5.91236 4.0946163,-9.83383 C 10.556883,109.36302 17.744652,106.5 28,106.5 c 7.281105,0 9.315955,0.40069 14.190087,2.79424 8.213852,4.03358 15.219904,12.05571 17.786819,20.36641 2.56058,8.2902 2.545433,12.43754 -0.07642,20.92612 -1.773133,5.74074 -3.055649,7.75279 -8.25,12.94285 -10.325579,10.31705 -23.267139,13.25446 -35.758026,8.11618 z m 339.411533,-1.8403 c -5.14121,-5.27537 -10.04173,-15.48694 -11.35976,-23.67118 -2.0357,-12.64056 2.73314,-27.47556 11.64331,-36.22023 L 360,105.58358 v 3.2059 c 0,2.01607 -1.23701,4.96965 -3.33302,7.95821 C 350.34666,125.75937 349.5,128.50624 349.5,140 c 0,9.60355 0.24416,10.96957 2.85986,16 1.57293,3.025 3.96344,6.9692 5.31225,8.76489 1.64082,2.18444 2.34905,4.27112 2.14014,6.3055 L 359.5,174.11101 Z M 21,162.51517 C 8.7868328,158.58245 1.9000786,145.7353 5.4532305,133.51289 c 1.9986326,-6.87506 5.6626635,-11.19222 12.0059045,-14.14602 16.180729,-7.53473 33.45099,3.20084 33.518903,20.83608 0.0354,9.19178 -3.84217,15.77244 -11.867418,20.14033 -6.103478,3.32193 -12.250032,4.05904 -18.11062,2.17189 z m 14.990547,-6.37044 C 48.141196,149.62827 49.35251,133.70982 38.337073,125.30793 35.154798,122.88069 33.753324,122.5 28,122.5 c -5.785249,0 -7.147067,0.3748 -10.412981,2.86583 -5.488652,4.1864 -7.57888,8.18258 -7.583281,14.49802 -0.00473,6.78225 2.664794,11.73165 8.296585,15.38221 5.156251,3.34232 12.443517,3.71251 17.690224,0.89867 z M 22.030015,151.72069 C 18.482369,149.92556 15,144.26945 15,140.30246 15,130.06012 26.416234,123.60135 34.60379,129.21155 38.003023,131.54074 41,136.65795 41,140.1328 c 0,3.54041 -3.20354,9.02015 -6.419965,10.98152 -3.539088,2.15813 -8.965214,2.4203 -12.55002,0.60637 z m 10.580888,-6.06243 c 1.945275,-1.67325 2.72243,-3.28848 2.72243,-5.65826 0,-3.43198 -3.906821,-8 -6.842044,-8 -7.775153,0 -11.330306,10.85262 -4.728582,14.43468 3.837675,2.08231 5.716388,1.91745 8.848196,-0.77642 z M 25.5,141 c -0.923305,-1.49394 0.361375,-3 2.559017,-3 C 29.333333,138 30,138.68694 30,140 c 0,2.12106 -3.347411,2.86493 -4.5,1 z m 330.96376,11.75 c -3.18201,-6.83471 -3.33872,-16.33642 -0.39902,-24.19348 1.1356,-3.03518 2.43368,-5.74653 2.88461,-6.02522 0.45094,-0.27869 0.81988,7.58776 0.81988,17.48099 0,9.89324 -0.19378,17.98771 -0.43062,17.98771 -0.23684,0 -1.53052,-2.3625 -2.87485,-5.25 z M 70.950604,35.939078 C 54.076059,33.454639 38.259261,22.334935 30.894687,7.7785167 27.39743,0.86602574 27.33262,0 30.312577,0 c 1.791585,0 3.086981,1.3813487 5.75,6.131525 C 39.893035,12.964129 50.261086,23.110045 56.5,26.131077 67.169645,31.297576 82.899142,32.51132 94.144665,29.035874 106.038,25.360219 117.01361,16.353002 122.5164,5.7523759 124.80424,1.3450613 126.02469,0.00419771 127.75,0.00237587 130.81332,-8.5882117e-4 130.63418,2.361684 127.1045,8.5151828 118.81357,22.969246 104.02155,33.340594 88,35.933102 c -7.267298,1.175949 -9.098472,1.176591 -17.049396,0.006 z M 65.836372,24.081163 C 55.706432,20.841511 47.383489,14.580347 41.87322,6.0542193 38.319767,0.55590378 38.308069,-0.01371076 41.75,0.05449183 43.899161,0.0970779 45.166516,1.1348916 47.550598,4.8044918 51.252392,10.502327 60.371256,16.899378 68.384487,19.419849 83.63127,24.21555 104.55775,16.520833 111.54277,3.550447 113.02579,0.79663181 114.07691,0 116.2274,0 117.75233,0 119,0.48142113 119,1.0698247 c 0,3.0852047 -9.71049,14.0243573 -16.68256,18.7933863 -8.644634,5.9131 -25.196577,7.82684 -36.481068,4.217952 z M 246.1118,22.524469 C 232.02567,19.315632 219.59226,12.948553 210.80141,4.4422121 L 206.72735,0.5 209.93252,0.18150661 c 2.48882,-0.24730978 4.36317,0.57298165 8.38633,3.67019069 7.06824,5.4414528 17.7666,10.6175127 26.18115,12.6669187 6.97138,1.697913 24.52784,2.202017 30.30735,0.870224 11.23877,-2.589795 23.27037,-8.1956199 30.05595,-14.0038287 3.03385,-2.59686037 4.84896,-3.37760055 7.79566,-3.35318302 L 316.5,0.06365655 311,4.9596905 c -7.87108,7.0067435 -14.67566,10.8548365 -26.12856,14.7760955 -8.50175,2.91084 -11.74734,3.498649 -21.20481,3.840405 -7.53193,0.272174 -13.24597,-0.07016 -17.55483,-1.051722 z M 70.5,14.665345 C 68.3,13.934283 64.986038,12.547342 63.135641,11.583253 59.385405,9.6293167 51,2.2285675 51,0.87263998 51,-1.1889526 56.480335,0.21455517 59.795257,3.1250958 66.480883,8.9951527 75.22941,11.421633 84,9.8384906 89.856775,8.781309 96.282652,5.5551294 99.406205,2.1036426 101.3658,-0.06168773 107,-0.85076189 107,1.0401253 107,2.9888831 98.515226,10.170126 93.290443,12.643458 86.911747,15.663036 76.327988,16.601989 70.5,14.665345 Z M 253.31499,13.011766 C 244.80931,11.736357 234.90664,8.3052274 228.12003,4.2820833 L 221.74007,0.5 226.13229,0.20491835 c 3.17584,-0.21336153 6.18895,0.51468464 10.87997,2.62888805 15.63018,7.0443881 34.11413,6.8957475 49.53253,-0.3983207 3.79025,-1.7930738 6.67131,-2.46133513 9.67623,-2.24439934 L 300.5,0.5 296,3.4214151 C 284.6436,10.79403 266.18409,14.941461 253.31499,13.011766 Z M 69,2.7954071 64.5,0.50909093 71.75,0.21073591 c 3.9875,-0.16409526 10.5125,-0.16614072 14.5,-0.004545 L 93.5,0.5 90.690485,2.4040059 C 86.150441,5.480789 74.692402,5.6875474 69,2.7954071 Z M 249.55935,1.9425186 C 247.39199,1.3977504 245.40449,0.73782401 245.14268,0.47601549 244.88087,0.21420697 252.27917,0.03867873 261.58333,0.08595274 273.91474,0.14860803 277.68685,0.43222815 275.5,1.1323297 271.062,2.553118 254.09669,3.0829853 249.55935,1.9425186 Z"
     id="path65" />
</svg>
